<svg xmlns="http://www.w3.org/2000/svg" viewBox="0 0 483.8 144.21"><defs><style>.cls-1{fill:#932222;}.cls-2{fill:#fffefd;}.cls-3{fill:#c69c6d;}</style></defs><title>Asset 1</title><g id="Layer_2" data-name="Layer 2"><g id="Layer_1-2" data-name="Layer 1"><path class="cls-1" d="M475.8,119.71h-279a8,8,0,0,1-8-8V58.91a8,8,0,0,1,8-8h279a8,8,0,0,1,8,8v52.8A8,8,0,0,1,475.8,119.71Z"/><path class="cls-1" d="M35.9,98.31c0,4.9-2.2,8.5-6.7,10.9-2.2,1.2-5.3,1.9-9.3,2.2-1.1,0-4.4.1-9.8.1H1.3q-1.2,0-1.2-.6c0-.4.7-.6,2.2-.6,1.7,0,2.8-.2,3.1-.5a6.78,6.78,0,0,0,.5-3.3v-39a12.15,12.15,0,0,0-.3-3.7c-.3-.6-1.6-.9-3.7-.9-1.3,0-1.9-.3-1.9-.8s.6-.7,1.8-.7h.9a7.84,7.84,0,0,0,1.4.2H18.2c5.2,0,9.1.9,11.6,2.6a9.64,9.64,0,0,1,4.5,8.6,9.73,9.73,0,0,1-3.7,8,19.73,19.73,0,0,1-10.3,3.9v.4q6.6.45,10.2,2.7Q35.9,91.26,35.9,98.31Zm-9.7-24.9c0-4.6-1.1-7.7-3.2-9.2Q21.35,63,16.7,63c-.8,0-2.1.1-3.8.2v20.9h.6l4-.1a8.42,8.42,0,0,0,6.4-2.9C25.5,79.21,26.2,76.61,26.2,73.41Zm2.1,24.1c0-6.1-2.5-9.8-7.4-11.3a34.8,34.8,0,0,0-8-.6v21.5c0,1.4.1,2.2.4,2.4a9.76,9.76,0,0,0,4,.5,10.24,10.24,0,0,0,7.9-3.2C27.3,104.71,28.3,101.61,28.3,97.51Z"/><path class="cls-1" d="M54.9,111c0,.3-.2.4-.6.4H42.2c-.8,0-1.2-.1-1.2-.4s.5-.5,1.6-.6c1.4-.1,2.2-.3,2.3-.5a18,18,0,0,0,.1-3.1V83.41a21.3,21.3,0,0,0-.1-3.3c-.1-.3-.5-.5-1.1-.5H41.7c-.4,0-.6-.2-.6-.5s.3-.5.9-.5H53.9q1.2,0,1.2.6c0,.3-.8.5-2.5.5q-1.05,0-1.2.3a6.39,6.39,0,0,0-.2,2v27.2c0,.5.2.8.5.9a14,14,0,0,0,2.6.4A.56.56,0,0,1,54.9,111Z"/><path class="cls-1" d="M81.1,102.11a8.71,8.71,0,0,1-3.5,6.9,12.79,12.79,0,0,1-8.4,2.9,15,15,0,0,1-7.6-2.2,1.76,1.76,0,0,0-.6-.1c-.3,0-.5.2-.5.7a3.73,3.73,0,0,1-.2,1.2.67.67,0,0,1-.7.5c-.5,0-.7-.2-.7-.7,0-.1,0-.8.1-2.2s.1-2.5.1-3.5V102c0-.9.2-1.4.7-1.4s.8.7,1.1,2.2c.9,5.3,3.8,7.9,8.5,7.9,4,0,6.1-2,6.1-6a6.53,6.53,0,0,0-1.4-4.3,19.69,19.69,0,0,0-5.6-3.7,29,29,0,0,1-7-4.3,7.26,7.26,0,0,1-1.9-5.2,8.43,8.43,0,0,1,2.9-6.5,10.68,10.68,0,0,1,7.3-2.6,12.33,12.33,0,0,1,5.8,1.7,1.42,1.42,0,0,0,.6.2c.3,0,.6-.3.6-1s.4-1,.9-1,.7.2.7.7a1.76,1.76,0,0,1-.1.6,26.28,26.28,0,0,0-.1,3c0,.7.1,2,.2,3.9,0,.2.1.4.1.6q0,.9-.6.9c-.4,0-.7-.4-.9-1.3a8.93,8.93,0,0,0-2.6-5,6.41,6.41,0,0,0-4.7-1.9c-3.5,0-5.2,1.8-5.2,5.5a5.9,5.9,0,0,0,1.4,4,7,7,0,0,0,1.6,1.4c.6.3,2.3,1.2,5.1,2.5a22.6,22.6,0,0,1,6.6,4.4A6.9,6.9,0,0,1,81.1,102.11Z"/><path class="cls-1" d="M112.4,87.31c0,.7-.3,1-.9,1s-1-.4-1-1.3a12,12,0,0,0-1.2-4.7c-.9-1.7-3-2.5-6.3-2.5a20.34,20.34,0,0,0-2.2.1v29c0,.9.7,1.4,2.1,1.4s2.1.2,2.1.6-.4.5-1.2.5H92.1c-1,0-1.4-.2-1.4-.5s.8-.5,2.4-.6a3.45,3.45,0,0,0,1.2-.1.7.7,0,0,0,.6-.8c0-.4.1-1.6.1-3.7v-26c-3.8,0-6.2.3-7.3,1.1s-1.9,2.7-2.3,5.7c-.1,1.1-.5,1.6-.9,1.6s-.6-.5-.6-1.6q0-2.1.6-8.1h16.8c1.5,0,4.5,0,9.1-.1a10.4,10.4,0,0,0,1.5-.2l.1,1.5.2,2.5.2,3,.1,1.3A4.4,4.4,0,0,0,112.4,87.31Z"/><path class="cls-1" d="M145.1,109.61c0,1.5-1.3,2.3-4,2.3a7.88,7.88,0,0,1-6.3-2.9,6.66,6.66,0,0,1-1.4-2.6c-.2-.9-.5-2.9-.9-6.1a5.67,5.67,0,0,0-2-4.3c-1.1-.8-2.9-1.3-5.6-1.4v14.9c-.1.7,1.1,1,3.6,1,.5,0,.8.2.8.5s-.3.5-1,.5H116.7c-1.3,0-2-.2-2-.5s.2-.5.7-.5h1c1.6,0,2.5-.3,2.5-1V81c0-.5-.1-.9-.4-1a4.54,4.54,0,0,0-2.1-.3c-1.1,0-1.7-.2-1.7-.6s.3-.5,1-.5h13.7a14.09,14.09,0,0,1,7.8,2,5.93,5.93,0,0,1,2.9,5.2,6.71,6.71,0,0,1-3.1,5.7c-2.1,1.5-5,2.3-8.7,2.5,4,.4,6.8,1.5,8.3,3.2s2.5,4.7,2.9,9.1q.45,4.5,2.7,4.5c.2,0,.4-.1.4-.2a4.2,4.2,0,0,1-.2-.5,3.93,3.93,0,0,1-.2-.6c0-.9.5-1.3,1.4-1.3S145.1,108.61,145.1,109.61Zm-11.4-23.3c0-4.3-2.1-6.5-6.4-6.5a3.77,3.77,0,0,0-2,.3c-.3.2-.4.7-.4,1.5v11.8C130.8,93.41,133.7,91.11,133.7,86.31Z"/><path class="cls-1" d="M179.1,95.21a16.55,16.55,0,0,1-4.5,11.8,14.7,14.7,0,0,1-11.1,4.9,15.7,15.7,0,0,1-11.8-4.9,16.67,16.67,0,0,1-4.8-12.1c0-4.9,1.5-9,4.6-12.1a15.9,15.9,0,0,1,11.7-4.7A15,15,0,0,1,174.6,83,17.52,17.52,0,0,1,179.1,95.21Zm-6.8.2c0-5.6-1.1-10-3.4-13.2a6.74,6.74,0,0,0-6-3.1c-3.5,0-6.1,1.9-7.6,5.8a27.15,27.15,0,0,0-1.7,10.2c0,4.9.9,8.8,2.6,11.6a8,8,0,0,0,7.2,4.2C169.4,110.91,172.3,105.71,172.3,95.41Z"/><path class="cls-2" d="M228.5,97.31a14.12,14.12,0,0,1-4.7,10.6,16.28,16.28,0,0,1-11.4,4.4,23.64,23.64,0,0,1-9.3-2.4,6.61,6.61,0,0,0-2.2-.6c-.6,0-.9.7-1.1,2a.87.87,0,0,1-.9,1c-.5,0-.7-.3-.7-.9a2.22,2.22,0,0,1,.1-.9,60.92,60.92,0,0,0,.6-8.2c0-.5,0-1.8-.1-4,0-.3-.1-.7-.1-1.2,0-.7.3-1.1.9-1.1s.8.6,1,1.7c1.3,8.6,5.3,13,12.2,13,2.9,0,5.2-.8,6.8-2.5a9.75,9.75,0,0,0,2.4-7,10.83,10.83,0,0,0-2.3-6.9,25,25,0,0,0-8-5.7c-4.6-2.3-7.7-4.4-9.5-6.6a11.65,11.65,0,0,1-2.7-7.9,13.41,13.41,0,0,1,3.9-9.9,13.19,13.19,0,0,1,9.8-3.9A21.35,21.35,0,0,1,220,62a7.26,7.26,0,0,0,2.2.6c.5,0,.9-.1,1-.3a4.11,4.11,0,0,0,.5-1.5.76.76,0,0,1,.8-.7c.5,0,.7.3.7.9a2.22,2.22,0,0,1-.1.9c-.1,1.2-.2,2.6-.2,4.2a27.49,27.49,0,0,0,.4,5.5l.1,1.2c0,.5-.2.8-.6.8s-.9-.6-1.1-1.7a12.7,12.7,0,0,0-3.8-7.1,9.46,9.46,0,0,0-6.6-2.9,7.45,7.45,0,0,0-5.7,2.3,8.88,8.88,0,0,0-2.1,6.3,9.24,9.24,0,0,0,3.1,7.4c1.2,1.1,3.7,2.5,7.5,4.5,4.5,2.3,7.8,4.6,9.7,6.9A13.75,13.75,0,0,1,228.5,97.31Z"/><path class="cls-2" d="M264.9,95.21a16.55,16.55,0,0,1-4.5,11.8,14.7,14.7,0,0,1-11.1,4.9,15.7,15.7,0,0,1-11.8-4.9,16.67,16.67,0,0,1-4.8-12.1c0-4.9,1.5-9,4.6-12.1a15.9,15.9,0,0,1,11.7-4.7A15,15,0,0,1,260.4,83,17.52,17.52,0,0,1,264.9,95.21Zm-6.8.2c0-5.6-1.1-10-3.4-13.2a6.74,6.74,0,0,0-6-3.1c-3.5,0-6.1,1.9-7.6,5.8a27.15,27.15,0,0,0-1.7,10.2c0,4.9.9,8.8,2.6,11.6a8,8,0,0,0,7.2,4.2C255.2,110.91,258.1,105.71,258.1,95.41Z"/><path class="cls-2" d="M296.3,104.91c0,2.7,0,5-.1,6.8-.3,0-.6.1-1.1.1a8.66,8.66,0,0,1-1.1-.1,21,21,0,0,0-2.7-.1h-3.4l-12.3-.1h-5.9c-.6,0-.9-.2-.9-.5s.9-.5,2.8-.6a1.18,1.18,0,0,0,1-.4,4.23,4.23,0,0,0,.2-1.6V84.21c0-2.7-.2-4.1-.6-4.3a3.81,3.81,0,0,0-1.3-.1,3.81,3.81,0,0,1-1.3-.1c-.5,0-.8-.2-.8-.6s.3-.5.9-.5h11.7c.9,0,1.4.2,1.4.6s-.8.4-2.4.5c-.8,0-1.2.2-1.4.5a14.31,14.31,0,0,0-.2,3.1v26.8c1.9,0,3.3.1,4.2.1,5.2,0,8.4-.5,9.7-1.5,1.1-.8,1.7-2.5,2-5.2.1-1.2.4-1.7.8-1.7S296.3,102.81,296.3,104.91Z"/><path class="cls-2" d="M330.7,79.21c0,.3-.4.5-1.2.5h-1.8c-.8,0-1.2.5-1.2,1.4v13.3a82,82,0,0,1-.3,9,10.92,10.92,0,0,1-1.5,4c-1.9,3-5.2,4.5-10,4.5a15.51,15.51,0,0,1-9.5-2.7c-2.2-1.7-3.2-4.9-3.2-9.7V84.31q0-3.9-.3-4.2a3.62,3.62,0,0,0-2.1-.4q-1.5,0-1.5-.6c0-.3.3-.5,1-.5h11.4c.9,0,1.3.2,1.3.6s-.9.7-2.7.6q-.75,0-.9.3a5.38,5.38,0,0,0-.1,1.6V99c0,4.7.6,7.8,1.8,9.1q2,2.4,6,2.4c3.7,0,6.2-1.5,7.6-4.6.7-1.5,1-4,1-7.4V81.11c0-.6-.1-1-.4-1.1a6.39,6.39,0,0,0-2-.2c-1.1,0-1.7-.2-1.7-.6s.3-.5.9-.5h8.1C330.3,78.61,330.7,78.81,330.7,79.21Z"/><path class="cls-2" d="M361.3,87.31c0,.7-.3,1-.9,1s-1-.4-1-1.3a12,12,0,0,0-1.2-4.7c-.9-1.7-3-2.5-6.3-2.5a20.34,20.34,0,0,0-2.2.1v29c0,.9.7,1.4,2.1,1.4s2.1.2,2.1.6-.4.5-1.2.5H341c-1,0-1.4-.2-1.4-.5s.8-.5,2.4-.6a3.45,3.45,0,0,0,1.2-.1.7.7,0,0,0,.6-.8c0-.4.1-1.6.1-3.7v-26c-3.8,0-6.2.3-7.3,1.1s-1.9,2.7-2.3,5.7c-.1,1.1-.5,1.6-.9,1.6s-.6-.5-.6-1.6q0-2.1.6-8.1h16.8c1.5,0,4.5,0,9.1-.1a10.4,10.4,0,0,0,1.5-.2l.1,1.5.2,2.5.2,3,.1,1.3A4.4,4.4,0,0,0,361.3,87.31Z"/><path class="cls-2" d="M377.8,111c0,.3-.2.4-.6.4H365.1c-.8,0-1.2-.1-1.2-.4s.5-.5,1.6-.6c1.4-.1,2.2-.3,2.3-.5a18,18,0,0,0,.1-3.1V83.41a21.3,21.3,0,0,0-.1-3.3c-.1-.3-.5-.5-1.1-.5h-2.3c-.4,0-.6-.2-.6-.5s.3-.5.9-.5h11.9q1.2,0,1.2.6c0,.3-.8.5-2.5.5q-1.05,0-1.2.3a6.39,6.39,0,0,0-.2,2v27.2c0,.5.2.8.5.9a14,14,0,0,0,2.6.4C377.5,110.51,377.8,110.71,377.8,111Z"/><path class="cls-2" d="M413.8,95.21a16.55,16.55,0,0,1-4.5,11.8,14.7,14.7,0,0,1-11.1,4.9,15.7,15.7,0,0,1-11.8-4.9,16.67,16.67,0,0,1-4.8-12.1c0-4.9,1.5-9,4.6-12.1a15.9,15.9,0,0,1,11.7-4.7A15,15,0,0,1,409.3,83,17.52,17.52,0,0,1,413.8,95.21Zm-6.7.2c0-5.6-1.1-10-3.4-13.2a6.74,6.74,0,0,0-6-3.1c-3.5,0-6.1,1.9-7.6,5.8a27.15,27.15,0,0,0-1.7,10.2c0,4.9.9,8.8,2.6,11.6a8,8,0,0,0,7.2,4.2C404.1,110.91,407.1,105.71,407.1,95.41Z"/><path class="cls-2" d="M449.2,79.11c0,.3-.5.5-1.6.5h-1.8c-.4,0-.7.1-.8.3a7.72,7.72,0,0,0-.1,2v26.6a17.27,17.27,0,0,1-.1,3c0,.3-.3.4-.7.4s-2.2-2-5.1-6.1c-.3-.5-.9-1.3-1.6-2.2a10.77,10.77,0,0,1-.8-1.1c-2.4-3.2-6.8-9.2-13.1-18v22.9c0,1.8.3,2.7.8,2.8a18.7,18.7,0,0,0,2.8.1h.3c.6,0,.9.2.9.5s-.5.5-1.6.5c-.2,0-1,0-2.4-.1-.7,0-1.4-.1-1.9-.1a6.15,6.15,0,0,0-1.4.1,28.12,28.12,0,0,1-3,.1c-.8,0-1.2-.2-1.2-.5s.5-.5,1.4-.5h.6l.9-.1c1.2-.1,1.8-.3,1.8-.7,0-.2.1-.9.1-2.1v-20c0-3.6-.2-5.8-.6-6.5-.6-1-1.7-1.5-3.4-1.5q-1.8,0-1.8-.6c0-.3.3-.5.9-.5h9.2l17,23.4V81.61a8.77,8.77,0,0,0-.1-2.1q-.15-.3-1.2-.3h-1.9c-.9,0-1.4-.2-1.4-.5s.2-.4.7-.4,2.1-.1,4.9-.1a41.66,41.66,0,0,1,4.6.1C449,78.71,449.2,78.81,449.2,79.11Z"/><path class="cls-2" d="M474.7,102.11a8.71,8.71,0,0,1-3.5,6.9,12.79,12.79,0,0,1-8.4,2.9,15,15,0,0,1-7.6-2.2,1.76,1.76,0,0,0-.6-.1c-.3,0-.5.2-.5.7a3.73,3.73,0,0,1-.2,1.2.67.67,0,0,1-.7.5c-.5,0-.7-.2-.7-.7,0-.1,0-.8.1-2.2s.1-2.5.1-3.5V102c0-.9.2-1.4.7-1.4s.8.7,1.1,2.2c.9,5.3,3.8,7.9,8.5,7.9,4,0,6.1-2,6.1-6a6.53,6.53,0,0,0-1.4-4.3,19.69,19.69,0,0,0-5.6-3.7,29,29,0,0,1-7-4.3,7.26,7.26,0,0,1-1.9-5.2,8.43,8.43,0,0,1,2.9-6.5,10.68,10.68,0,0,1,7.3-2.6,12.33,12.33,0,0,1,5.8,1.7,1.42,1.42,0,0,0,.6.2c.3,0,.6-.3.6-1s.4-1,.9-1,.7.2.7.7a1.76,1.76,0,0,1-.1.6,26.28,26.28,0,0,0-.1,3c0,.7.1,2,.2,3.9,0,.2.1.4.1.6q0,.9-.6.9c-.4,0-.7-.4-.9-1.3a8.93,8.93,0,0,0-2.6-5,6.41,6.41,0,0,0-4.7-1.9c-3.5,0-5.2,1.8-5.2,5.5a5.9,5.9,0,0,0,1.4,4,7,7,0,0,0,1.6,1.4c.6.3,2.3,1.2,5.1,2.5a22.6,22.6,0,0,1,6.6,4.4A6.48,6.48,0,0,1,474.7,102.11Z"/><path class="cls-3" d="M79.2,47c-.3-.9-.8-1.7-1.1-2.7a13.18,13.18,0,0,1-1-3.9,26,26,0,0,0-.5-3.9,10.15,10.15,0,0,1,.9-5.4,9.59,9.59,0,0,0,.7-4.1,7.6,7.6,0,0,0-.6-2.6c-.1-.3-.4-.7-.5-1a28.75,28.75,0,0,0-4.1-5.9,18.71,18.71,0,0,1-3.6-4.3c-.4-.7-1-1.4-1.4-2.1a10,10,0,0,1-1.1-5.9,6.15,6.15,0,0,1,.1-1.3,10.24,10.24,0,0,1,1-3.4c.1-.3,0-.5-.3-.5a7.32,7.32,0,0,0-2.5.8,7.71,7.71,0,0,0-3.1,3.1,14.49,14.49,0,0,0-1.2,3.5,10.66,10.66,0,0,0,.1,4.7c0,.1.1.1.1.2s-.1.2-.1.3-.2.2-.3.1-.2-.1-.2-.2a11.05,11.05,0,0,1-.9-3.1c-.1-.4-.1-.8-.2-1.2a.85.85,0,0,0-.2-.6c-.1,0-.1.1-.2.2s-.1.2-.1.3c-.1.7-.2,1.3-.3,2,0,.1-.1.2-.2.4a.37.37,0,0,1-.6,0l-.3-.3a3.41,3.41,0,0,1,.6-3.6q1.5-2,3.3-3.9h0c1-1.2-5.9-2.3-6.8-2.4a24.09,24.09,0,0,0-7.1-.1c-4.3.5-9.3,1.7-13.1,4a10.86,10.86,0,0,0-2.6,2.2A10.7,10.7,0,0,0,30.4,8c-.1.2-.6,2-.1,1.4a8.16,8.16,0,0,1,3.5-1.7,12.21,12.21,0,0,1,5.7.1,18.38,18.38,0,0,0,6.2.4h0c1.5-.2.8.7.1,1.2a7.35,7.35,0,0,1-3,.7c-1.8.2-3.8,0-5.5.4-3.3.8-6.7,4.5-8.8,7a20.74,20.74,0,0,0-1.9,3.2c-.1.3-1.4,2.9-1.7,2.3a.37.37,0,0,1-.1-.3,11.07,11.07,0,0,1,.7-2.6,22.4,22.4,0,0,1,3.3-5.3,17.41,17.41,0,0,0,1.2-1.4,1.46,1.46,0,0,0,.3-.5,1.19,1.19,0,0,0-.6.2c-5.2,2.4-8.5,6.6-12.1,10.9a29.16,29.16,0,0,0-5.5,9.1c-2.3,6.7-1.6,15.1,1.3,21.6,0,0,11.1-2.1,20.7,8.7s24.1,9.7,24.1,9.7c-11.9-10.9-6-32.8-6-32.8,1.8.6,3.6,1.2,5.4,1.9a.52.52,0,0,1,.3.7,4.85,4.85,0,0,0,.9,4.6,10.21,10.21,0,0,1,2.2,4.7,4.16,4.16,0,0,1-.2,2.2,34,34,0,0,0-1.2,3.4,2.53,2.53,0,0,0,1,2.7,10.59,10.59,0,0,1,1.2,1,10.28,10.28,0,0,0,2.9,2.1,1.45,1.45,0,0,0,.7.2c.7.1.8-.1.9-.8a13.28,13.28,0,0,0-.4-4c0-.3-.1-.6-.1-.9,0-.8.2-1,1.1-1a1.58,1.58,0,0,1,1.8,1.6c.1.9.1,1.7.2,2.6,0,1.2-.1,2.3,0,3.5A3.38,3.38,0,0,0,72.2,68a.76.76,0,0,0,.5-.2c.2-.4.4-.8.6-1.3.1-.3.1-.6.2-1a7.11,7.11,0,0,1,3.2-4.7c.9-.7,1.9-1.3,2.8-2.1a4,4,0,0,0,1.7-3.6,16.14,16.14,0,0,0-.7-4.9A16.31,16.31,0,0,1,79.2,47Z"/><path class="cls-3" d="M165,139.11a4.81,4.81,0,0,1-.4,2.2,3.14,3.14,0,0,1-1.1,1.4,4.07,4.07,0,0,1-2.9,1h-4.3v-17h3.9a7.72,7.72,0,0,1,1.5.2,3.58,3.58,0,0,1,2.4,2,5.92,5.92,0,0,1,.4,2,6.05,6.05,0,0,1-.2,1.5,3.7,3.7,0,0,1-.5,1.1,3,3,0,0,1-.8.8,4.05,4.05,0,0,1-.9.5h0a6.89,6.89,0,0,1,1,.4,3.92,3.92,0,0,1,1,.8,4,4,0,0,1,.7,1.3A5,5,0,0,1,165,139.11Zm-2.1-7.9a2.9,2.9,0,0,0-.3-1.4,2.18,2.18,0,0,0-.7-.9,4.05,4.05,0,0,0-.9-.5,3.75,3.75,0,0,0-1.1-.1h-2.1v6h2.1a3,3,0,0,0,1-.2,2.62,2.62,0,0,0,.9-.5,7.05,7.05,0,0,0,.7-.9A2.82,2.82,0,0,0,162.9,131.21Zm.5,7.8a3.81,3.81,0,0,0-.3-1.6,4.13,4.13,0,0,0-.7-1.1,2.07,2.07,0,0,0-1-.6,4.25,4.25,0,0,0-1.1-.2h-2.4v6.8h2.4a5,5,0,0,0,1.2-.2,2.07,2.07,0,0,0,1-.6,3.59,3.59,0,0,0,.7-1A6.05,6.05,0,0,0,163.4,139Z"/><path class="cls-3" d="M172.7,143.81v-17h1.7v17Z"/><path class="cls-3" d="M190.5,139.41a6,6,0,0,1-.3,2,3.77,3.77,0,0,1-.9,1.5,4.19,4.19,0,0,1-1.4.9,4.67,4.67,0,0,1-1.7.3,4.75,4.75,0,0,1-2.4-.6A6.55,6.55,0,0,1,182,142l1-1.2a4.07,4.07,0,0,0,1.4,1.2,3.53,3.53,0,0,0,1.7.4,2.56,2.56,0,0,0,1.9-.8,3.2,3.2,0,0,0,.8-2.3,5.07,5.07,0,0,0-.2-1.3,8.79,8.79,0,0,0-.6-1c-.3-.3-.6-.5-.9-.8a10.91,10.91,0,0,0-1.1-.6,5.67,5.67,0,0,1-1.3-.8,5.24,5.24,0,0,1-1.1-1,5.67,5.67,0,0,1-.8-1.3,4.84,4.84,0,0,1-.3-1.8,4.64,4.64,0,0,1,.4-2.1,4,4,0,0,1,1-1.5,4.19,4.19,0,0,1,1.4-.9,4.15,4.15,0,0,1,1.6-.3,4.64,4.64,0,0,1,2.1.4,4.43,4.43,0,0,1,1.5,1.2l-1,1.2a2.59,2.59,0,0,0-1.1-1,3.19,3.19,0,0,0-1.4-.3,3.55,3.55,0,0,0-1,.2,2.36,2.36,0,0,0-.9.6,2.07,2.07,0,0,0-.6,1,3.18,3.18,0,0,0-.2,1.4,3.73,3.73,0,0,0,.2,1.2,1.46,1.46,0,0,0,.6.9,2.18,2.18,0,0,0,.9.7c.3.2.7.4,1,.6a9.13,9.13,0,0,1,1.3.8,10.59,10.59,0,0,1,1.2,1,3.53,3.53,0,0,1,.8,1.3C190.4,138.11,190.5,138.71,190.5,139.41Z"/><path class="cls-3" d="M201.3,128.21v15.6h-1.7v-15.6h-3.3v-1.4h8.2v1.4Z"/><path class="cls-3" d="M218.2,143.81l-3.1-7.9h-2.2v7.9h-1.6v-17h4.1a7.77,7.77,0,0,1,1.6.2,3.92,3.92,0,0,1,1.4.8,5,5,0,0,1,1,1.4,4.64,4.64,0,0,1,.4,2.1,5.82,5.82,0,0,1-.3,1.9,4,4,0,0,1-.7,1.3,2.54,2.54,0,0,1-1,.8,4.87,4.87,0,0,1-1.1.4l3.3,8.2-1.8-.1Zm-.1-12.5a3.34,3.34,0,0,0-.3-1.5,3.59,3.59,0,0,0-.7-1,3.13,3.13,0,0,0-1-.5,4.1,4.1,0,0,0-1.1-.1h-2.2v6.4H215a2.86,2.86,0,0,0,2.1-.8A2.77,2.77,0,0,0,218.1,131.31Z"/><path class="cls-3" d="M238.1,135.21a13.7,13.7,0,0,1-.4,3.6,10.23,10.23,0,0,1-1.1,2.8,5.16,5.16,0,0,1-1.8,1.8,5.1,5.1,0,0,1-4.8,0,5.16,5.16,0,0,1-1.8-1.8,7.82,7.82,0,0,1-1.1-2.8,19.82,19.82,0,0,1-.4-3.6,13.7,13.7,0,0,1,.4-3.6,7.82,7.82,0,0,1,1.1-2.8A5.16,5.16,0,0,1,230,127a5.1,5.1,0,0,1,4.8,0,5.16,5.16,0,0,1,1.8,1.8,10.23,10.23,0,0,1,1.1,2.8A13.7,13.7,0,0,1,238.1,135.21Zm-1.8,0a26.42,26.42,0,0,0-.2-2.9,10.49,10.49,0,0,0-.7-2.3,4,4,0,0,0-1.2-1.6,2.71,2.71,0,0,0-3.4,0,4,4,0,0,0-1.2,1.6,7.75,7.75,0,0,0-.7,2.3,13.68,13.68,0,0,0-.2,2.9,26.42,26.42,0,0,0,.2,2.9,13.7,13.7,0,0,0,.7,2.4,4,4,0,0,0,1.2,1.6,2.71,2.71,0,0,0,3.4,0,4,4,0,0,0,1.2-1.6,8.43,8.43,0,0,0,.7-2.4A24.77,24.77,0,0,0,236.3,135.21Z"/><path class="cls-3" d="M253.4,139.41a6,6,0,0,1-.3,2,3.77,3.77,0,0,1-.9,1.5,4.19,4.19,0,0,1-1.4.9,4.67,4.67,0,0,1-1.7.3,4.75,4.75,0,0,1-2.4-.6,6.55,6.55,0,0,1-1.8-1.5l1-1.2a4.07,4.07,0,0,0,1.4,1.2,3.53,3.53,0,0,0,1.7.4,2.56,2.56,0,0,0,1.9-.8,3.2,3.2,0,0,0,.8-2.3,5.07,5.07,0,0,0-.2-1.3,8.79,8.79,0,0,0-.6-1c-.3-.3-.6-.5-.9-.8a10.91,10.91,0,0,0-1.1-.6,5.67,5.67,0,0,1-1.3-.8,5.24,5.24,0,0,1-1.1-1,5.67,5.67,0,0,1-.8-1.3,4.84,4.84,0,0,1-.3-1.8,4.64,4.64,0,0,1,.4-2.1,4,4,0,0,1,1-1.5,4.19,4.19,0,0,1,1.4-.9,4.15,4.15,0,0,1,1.6-.3,4.64,4.64,0,0,1,2.1.4,4.43,4.43,0,0,1,1.5,1.2l-1,1.2a2.59,2.59,0,0,0-1.1-1,3.19,3.19,0,0,0-1.4-.3,3.55,3.55,0,0,0-1,.2,2.36,2.36,0,0,0-.9.6,2.07,2.07,0,0,0-.6,1,3.18,3.18,0,0,0-.2,1.4,3.73,3.73,0,0,0,.2,1.2,1.46,1.46,0,0,0,.6.9,2.18,2.18,0,0,0,.9.7c.3.2.7.4,1,.6a9.13,9.13,0,0,1,1.3.8,10.59,10.59,0,0,1,1.2,1,3.53,3.53,0,0,1,.8,1.3C253.3,138.11,253.4,138.71,253.4,139.41Z"/><path class="cls-3" d="M271.8,135.21a13.7,13.7,0,0,1-.4,3.6,10.23,10.23,0,0,1-1.1,2.8,5.16,5.16,0,0,1-1.8,1.8,5.1,5.1,0,0,1-4.8,0,5.16,5.16,0,0,1-1.8-1.8,7.82,7.82,0,0,1-1.1-2.8,19.82,19.82,0,0,1-.4-3.6,13.7,13.7,0,0,1,.4-3.6,7.82,7.82,0,0,1,1.1-2.8,5.16,5.16,0,0,1,1.8-1.8,5.1,5.1,0,0,1,4.8,0,5.16,5.16,0,0,1,1.8,1.8,10.23,10.23,0,0,1,1.1,2.8A13.7,13.7,0,0,1,271.8,135.21Zm-1.8,0a26.42,26.42,0,0,0-.2-2.9,10.49,10.49,0,0,0-.7-2.3,4,4,0,0,0-1.2-1.6,2.71,2.71,0,0,0-3.4,0,4,4,0,0,0-1.2,1.6,7.75,7.75,0,0,0-.7,2.3,13.68,13.68,0,0,0-.2,2.9,26.42,26.42,0,0,0,.2,2.9,13.7,13.7,0,0,0,.7,2.4,4,4,0,0,0,1.2,1.6,2.71,2.71,0,0,0,3.4,0,4,4,0,0,0,1.2-1.6,8.43,8.43,0,0,0,.7-2.4A24.77,24.77,0,0,0,270,135.21Z"/><path class="cls-3" d="M279.7,143.81v-17h1.7v15.4h4.8v1.6Z"/><path class="cls-3" d="M294.9,142.71a1.4,1.4,0,0,1-.3.9.83.83,0,0,1-.8.3,1.14,1.14,0,0,1-.8-.3,1.22,1.22,0,0,1-.3-.9,1.14,1.14,0,0,1,.3-.8,1.23,1.23,0,0,1,.8-.4.91.91,0,0,1,.8.4A1.33,1.33,0,0,1,294.9,142.71Z"/><path class="cls-3" d="M310.5,143.61a4.65,4.65,0,0,1-2.3.6,4.3,4.3,0,0,1-2.5-.7,6.56,6.56,0,0,1-1.8-1.9,7.82,7.82,0,0,1-1.1-2.8,13.42,13.42,0,0,1-.4-3.5,13.7,13.7,0,0,1,.4-3.6,7.91,7.91,0,0,1,1.2-2.8,8.22,8.22,0,0,1,1.8-1.9,4.81,4.81,0,0,1,2.4-.7,5.45,5.45,0,0,1,2.2.5,3.75,3.75,0,0,1,1.7,1.6l-1.1,1.1a2.93,2.93,0,0,0-1.3-1.2,2.82,2.82,0,0,0-1.5-.4,2.79,2.79,0,0,0-1.8.6,4.17,4.17,0,0,0-1.3,1.6,13.49,13.49,0,0,0-.8,2.4,12.92,12.92,0,0,0-.3,2.9,11.43,11.43,0,0,0,.3,2.8,6.9,6.9,0,0,0,.8,2.3,4.17,4.17,0,0,0,1.3,1.6,2.79,2.79,0,0,0,1.8.6,3.37,3.37,0,0,0,1.7-.5,3.33,3.33,0,0,0,1.2-1.4l1.1,1.1A4.62,4.62,0,0,1,310.5,143.61Z"/><path class="cls-3" d="M329.9,135.21a13.7,13.7,0,0,1-.4,3.6,10.23,10.23,0,0,1-1.1,2.8,5.16,5.16,0,0,1-1.8,1.8,5.1,5.1,0,0,1-4.8,0,5.16,5.16,0,0,1-1.8-1.8,7.82,7.82,0,0,1-1.1-2.8,19.82,19.82,0,0,1-.4-3.6,13.7,13.7,0,0,1,.4-3.6,7.82,7.82,0,0,1,1.1-2.8,5.16,5.16,0,0,1,1.8-1.8,5.1,5.1,0,0,1,4.8,0,5.16,5.16,0,0,1,1.8,1.8,10.23,10.23,0,0,1,1.1,2.8A13.7,13.7,0,0,1,329.9,135.21Zm-1.7,0a26.42,26.42,0,0,0-.2-2.9,10.49,10.49,0,0,0-.7-2.3,4.81,4.81,0,0,0-1.2-1.6,2.71,2.71,0,0,0-3.4,0,4,4,0,0,0-1.2,1.6,7.75,7.75,0,0,0-.7,2.3,13.68,13.68,0,0,0-.2,2.9,26.42,26.42,0,0,0,.2,2.9,13.7,13.7,0,0,0,.7,2.4,4,4,0,0,0,1.2,1.6,2.71,2.71,0,0,0,3.4,0,4,4,0,0,0,1.2-1.6,8.43,8.43,0,0,0,.7-2.4A24.77,24.77,0,0,0,328.2,135.21Z"/><rect class="cls-3" x="114.6" y="134.31" width="29.3" height="2"/><rect class="cls-3" x="342.5" y="134.31" width="29.3" height="2"/></g></g></svg>