<svg xmlns="http://www.w3.org/2000/svg" viewBox="0 0 401.1 84.7"><defs><style>.cls-1{fill:#c69c6d;}.cls-2{fill:#ddd;}</style></defs><title>Asset 1</title><g id="Layer_2" data-name="Layer 2"><g id="Layer_1-2" data-name="Layer 1"><path d="M48.4,50.9c0,.4-.4.6-1.1.6a5.28,5.28,0,0,1-1.3-.1l-9.2-.3-9.2.3c-.3,0-.7.1-1.1.1-1,0-1.4-.3-1.4-.8s.6-.8,1.9-.8c4.2,0,6.3-.5,6.3-1.3a2.8,2.8,0,0,0-.1-.6l-.6-1.9-.4-1c-.4-1.5-1.5-4.8-3.2-9.9H13.6c-2.9,7.7-4.3,12.1-4.3,13.3a1,1,0,0,0,.9,1.2l3.6.3c1.4,0,2.1.3,2.1.7s-.6.7-1.9.7c-2.2,0-4.8-.1-7.7-.3-.7,0-1.5-.1-2.2-.1a15,15,0,0,0-2.2.2,3.44,3.44,0,0,1-.9.1c-.7,0-1-.2-1-.7s.8-.7,2.3-.7a6.75,6.75,0,0,0,3.3-.7,4.07,4.07,0,0,0,1.6-2.4C13.4,29,18.4,14.8,22.3,4A5.55,5.55,0,0,1,23,2.1L23.3.8c.1-.5.3-.8.6-.8.1,0,.3.1.4.4.6,1.9,2,5.8,4.3,11.8q2.55,7.05,12.9,35.1A3.57,3.57,0,0,0,43,49.4a9.34,9.34,0,0,0,3.7.5C47.8,50.3,48.4,50.5,48.4,50.9ZM28.8,33.7C28,31.5,26.7,28,24.9,23L21.4,13q-3,8-7.2,20.7Z"/><path d="M74.5,44.9c0,2.7,0,5-.1,6.8-.3,0-.6.1-1.1.1a8.66,8.66,0,0,1-1.1-.1,21,21,0,0,0-2.7-.1H66.1l-12.3-.1H47.9c-.6,0-.9-.2-.9-.5s.9-.5,2.8-.6a1.18,1.18,0,0,0,1-.4,4.23,4.23,0,0,0,.2-1.6V24.2c0-2.7-.2-4.1-.6-4.3a3.81,3.81,0,0,0-1.3-.1,3.81,3.81,0,0,1-1.3-.1c-.5,0-.8-.2-.8-.6s.3-.5.9-.5H59.6c.9,0,1.4.2,1.4.6s-.8.4-2.4.5c-.8,0-1.2.2-1.4.5a14.31,14.31,0,0,0-.2,3.1V50.1c1.9,0,3.3.1,4.2.1,5.2,0,8.4-.5,9.7-1.5,1.1-.8,1.7-2.5,2-5.2.1-1.2.4-1.7.8-1.7S74.5,42.8,74.5,44.9Z"/><path d="M104.3,44.9c0,2.7,0,5-.1,6.8-.3,0-.6.1-1.1.1a8.66,8.66,0,0,1-1.1-.1,21,21,0,0,0-2.7-.1H95.9l-12.3-.1H77.7c-.6,0-.9-.2-.9-.5s.9-.5,2.8-.6a1.18,1.18,0,0,0,1-.4,4.23,4.23,0,0,0,.2-1.6V24.2c0-2.7-.2-4.1-.6-4.3a3.81,3.81,0,0,0-1.3-.1,3.81,3.81,0,0,1-1.3-.1c-.5,0-.8-.2-.8-.6s.3-.5.9-.5H89.4c.9,0,1.4.2,1.4.6s-.8.4-2.4.5c-.8,0-1.2.2-1.4.5a14.31,14.31,0,0,0-.2,3.1V50.1c1.9,0,3.3.1,4.2.1,5.2,0,8.4-.5,9.7-1.5,1.1-.8,1.7-2.5,2-5.2.1-1.2.4-1.7.8-1.7S104.3,42.8,104.3,44.9Z"/><path d="M152.2,37.3a14.12,14.12,0,0,1-4.7,10.6,16.28,16.28,0,0,1-11.4,4.4,23.64,23.64,0,0,1-9.3-2.4,6.61,6.61,0,0,0-2.2-.6c-.6,0-.9.7-1.1,2a.87.87,0,0,1-.9,1c-.5,0-.7-.3-.7-.9a2.22,2.22,0,0,1,.1-.9,60.92,60.92,0,0,0,.6-8.2c0-.5,0-1.8-.1-4,0-.3-.1-.7-.1-1.2,0-.7.3-1.1.9-1.1s.8.6,1,1.7c1.3,8.6,5.3,13,12.2,13,2.9,0,5.2-.8,6.8-2.5a9.75,9.75,0,0,0,2.4-7,10.83,10.83,0,0,0-2.3-6.9,25,25,0,0,0-8-5.7c-4.6-2.3-7.7-4.4-9.5-6.6a11.65,11.65,0,0,1-2.7-7.9,13.41,13.41,0,0,1,3.9-9.9A13.19,13.19,0,0,1,136.9.3,21.35,21.35,0,0,1,143.7,2a7.26,7.26,0,0,0,2.2.6c.5,0,.9-.1,1-.3a4.11,4.11,0,0,0,.5-1.5.76.76,0,0,1,.8-.7c.5,0,.7.3.7.9a2.22,2.22,0,0,1-.1.9c-.1,1.2-.2,2.6-.2,4.2a27.49,27.49,0,0,0,.4,5.5l.1,1.2c0,.5-.2.8-.6.8s-.9-.6-1.1-1.7a12.7,12.7,0,0,0-3.8-7.1A9.46,9.46,0,0,0,137,1.9a7.45,7.45,0,0,0-5.7,2.3,8.88,8.88,0,0,0-2.1,6.3,9.24,9.24,0,0,0,3.1,7.4c1.2,1.1,3.7,2.5,7.5,4.5,4.5,2.3,7.8,4.6,9.7,6.9A13.75,13.75,0,0,1,152.2,37.3Z"/><path d="M188.6,35.2A16.55,16.55,0,0,1,184.1,47,14.7,14.7,0,0,1,173,51.9,15.7,15.7,0,0,1,161.2,47a16.67,16.67,0,0,1-4.8-12.1c0-4.9,1.5-9,4.6-12.1a15.9,15.9,0,0,1,11.7-4.7A15,15,0,0,1,184.1,23,17.52,17.52,0,0,1,188.6,35.2Zm-6.8.2c0-5.6-1.1-10-3.4-13.2a6.74,6.74,0,0,0-6-3.1c-3.5,0-6.1,1.9-7.6,5.8a27.15,27.15,0,0,0-1.7,10.2c0,4.9.9,8.8,2.6,11.6a8,8,0,0,0,7.2,4.2C178.9,50.9,181.8,45.7,181.8,35.4Z"/><path d="M220,44.9c0,2.7,0,5-.1,6.8-.3,0-.6.1-1.1.1a8.66,8.66,0,0,1-1.1-.1,21,21,0,0,0-2.7-.1h-3.4l-12.3-.1h-5.9c-.6,0-.9-.2-.9-.5s.9-.5,2.8-.6a1.18,1.18,0,0,0,1-.4,4.23,4.23,0,0,0,.2-1.6V24.2c0-2.7-.2-4.1-.6-4.3a3.81,3.81,0,0,0-1.3-.1,3.81,3.81,0,0,1-1.3-.1c-.5,0-.8-.2-.8-.6s.3-.5.9-.5h11.7c.9,0,1.4.2,1.4.6s-.8.4-2.4.5c-.8,0-1.2.2-1.4.5a14.31,14.31,0,0,0-.2,3.1V50.1c1.9,0,3.3.1,4.2.1,5.2,0,8.4-.5,9.7-1.5,1.1-.8,1.7-2.5,2-5.2.1-1.2.4-1.7.8-1.7S220,42.8,220,44.9Z"/><path d="M254.4,19.2c0,.3-.4.5-1.2.5h-1.8c-.8,0-1.2.5-1.2,1.4V34.4a82,82,0,0,1-.3,9,10.92,10.92,0,0,1-1.5,4c-1.9,3-5.2,4.5-10,4.5a15.51,15.51,0,0,1-9.5-2.7c-2.2-1.7-3.2-4.9-3.2-9.7V24.3q0-3.9-.3-4.2a3.62,3.62,0,0,0-2.1-.4q-1.5,0-1.5-.6c0-.3.3-.5,1-.5h11.4c.9,0,1.3.2,1.3.6s-.9.7-2.7.6q-.75,0-.9.3a5.38,5.38,0,0,0-.1,1.6V39c0,4.7.6,7.8,1.8,9.1q2,2.4,6,2.4c3.7,0,6.2-1.5,7.6-4.6.7-1.5,1-4,1-7.4V21.1c0-.6-.1-1-.4-1.1a6.39,6.39,0,0,0-2-.2c-1.1,0-1.7-.2-1.7-.6s.3-.5.9-.5h8.1C254,18.6,254.4,18.8,254.4,19.2Z"/><path d="M285,27.3c0,.7-.3,1-.9,1s-1-.4-1-1.3a12,12,0,0,0-1.2-4.7c-.9-1.7-3-2.5-6.3-2.5a20.34,20.34,0,0,0-2.2.1v29c0,.9.7,1.4,2.1,1.4s2.1.2,2.1.6-.4.5-1.2.5H264.7c-1,0-1.4-.2-1.4-.5s.8-.5,2.4-.6a3.45,3.45,0,0,0,1.2-.1.7.7,0,0,0,.6-.8c0-.4.1-1.6.1-3.7v-26c-3.8,0-6.2.3-7.3,1.1s-1.9,2.7-2.3,5.7c-.1,1.1-.5,1.6-.9,1.6s-.6-.5-.6-1.6q0-2.1.6-8.1h16.8c1.5,0,4.5,0,9.1-.1a10.4,10.4,0,0,0,1.5-.2l.1,1.5.2,2.5.2,3,.1,1.3A4.4,4.4,0,0,0,285,27.3Z"/><path d="M301.5,51c0,.3-.2.4-.6.4H288.7c-.8,0-1.2-.1-1.2-.4s.5-.5,1.6-.6c1.4-.1,2.2-.3,2.3-.5a18,18,0,0,0,.1-3.1V23.4a21.3,21.3,0,0,0-.1-3.3c-.1-.3-.5-.5-1.1-.5h-2.2c-.4,0-.6-.2-.6-.5s.3-.5.9-.5h11.9q1.2,0,1.2.6c0,.3-.8.5-2.5.5q-1,0-1.2.3a6.39,6.39,0,0,0-.2,2V49.2c0,.5.2.8.5.9a14,14,0,0,0,2.6.4C301.2,50.5,301.5,50.7,301.5,51Z"/><path d="M337.5,35.2A16.55,16.55,0,0,1,333,47a14.7,14.7,0,0,1-11.1,4.9A15.7,15.7,0,0,1,310.1,47a16.67,16.67,0,0,1-4.8-12.1c0-4.9,1.5-9,4.6-12.1a15.9,15.9,0,0,1,11.7-4.7A15,15,0,0,1,333,23,17.52,17.52,0,0,1,337.5,35.2Zm-6.8.2c0-5.6-1.1-10-3.4-13.2a6.74,6.74,0,0,0-6-3.1c-3.5,0-6.1,1.9-7.6,5.8A27.15,27.15,0,0,0,312,35.1c0,4.9.9,8.8,2.6,11.6a8,8,0,0,0,7.2,4.2C327.8,50.9,330.7,45.7,330.7,35.4Z"/><path d="M372.9,19.1c0,.3-.5.5-1.6.5h-1.8c-.4,0-.7.1-.8.3a7.72,7.72,0,0,0-.1,2V48.5a17.27,17.27,0,0,1-.1,3c0,.3-.3.4-.7.4s-2.2-2-5.1-6.1c-.3-.5-.9-1.3-1.6-2.2a10.77,10.77,0,0,1-.8-1.1c-2.4-3.2-6.8-9.2-13.1-18V47.4c0,1.8.3,2.7.8,2.8a18.7,18.7,0,0,0,2.8.1h.3c.6,0,.9.2.9.5s-.5.5-1.6.5c-.2,0-1,0-2.4-.1-.7,0-1.4-.1-1.9-.1a6.15,6.15,0,0,0-1.4.1,28.12,28.12,0,0,1-3,.1c-.8,0-1.2-.2-1.2-.5s.5-.5,1.4-.5h.6l.9-.1c1.2-.1,1.8-.3,1.8-.7,0-.2.1-.9.1-2.1v-20c0-3.6-.2-5.8-.6-6.5-.6-1-1.7-1.5-3.4-1.5q-1.8,0-1.8-.6c0-.3.3-.5.9-.5h9.2l17,23.4V21.6a8.77,8.77,0,0,0-.1-2.1q-.15-.3-1.2-.3h-1.9c-.9,0-1.4-.2-1.4-.5s.2-.4.7-.4,2.1-.1,4.9-.1a41.66,41.66,0,0,1,4.6.1C372.7,18.7,372.9,18.8,372.9,19.1Z"/><path d="M398.4,42.1a8.71,8.71,0,0,1-3.5,6.9,12.79,12.79,0,0,1-8.4,2.9,15,15,0,0,1-7.6-2.2,1.76,1.76,0,0,0-.6-.1c-.3,0-.5.2-.5.7a3.73,3.73,0,0,1-.2,1.2.67.67,0,0,1-.7.5c-.5,0-.7-.2-.7-.7,0-.1,0-.8.1-2.2s.1-2.5.1-3.5V42c0-.9.2-1.4.7-1.4s.8.7,1.1,2.2c.9,5.3,3.8,7.9,8.5,7.9,4,0,6.1-2,6.1-6a6.53,6.53,0,0,0-1.4-4.3,19.69,19.69,0,0,0-5.6-3.7,29,29,0,0,1-7-4.3,7.26,7.26,0,0,1-1.9-5.2,8.43,8.43,0,0,1,2.9-6.5,10.68,10.68,0,0,1,7.3-2.6,12.33,12.33,0,0,1,5.8,1.7,1.42,1.42,0,0,0,.6.2c.3,0,.6-.3.6-1s.4-1,.9-1,.7.2.7.7a1.76,1.76,0,0,1-.1.6,26.28,26.28,0,0,0-.1,3c0,.7.1,2,.2,3.9,0,.2.1.4.1.6q0,.9-.6.9c-.4,0-.7-.4-.9-1.3a8.93,8.93,0,0,0-2.6-5,6.41,6.41,0,0,0-4.7-1.9c-3.5,0-5.2,1.8-5.2,5.5a5.9,5.9,0,0,0,1.4,4,7,7,0,0,0,1.6,1.4c.6.3,2.3,1.2,5.1,2.5a22.6,22.6,0,0,1,6.6,4.4A6.48,6.48,0,0,1,398.4,42.1Z"/><path class="cls-1" d="M277.3,84.3l-1-4.2h-5.2L270,84.3h-1.7l4.3-17h2.3l4.2,17Zm-3.6-15.5h0l-2.4,9.9h4.8Z"/><path class="cls-1" d="M286,84.3v-17h1.7V82.7h4.8v1.6Z"/><path class="cls-1" d="M299.3,84.3v-17H301V82.7h4.8v1.6Z"/><path class="cls-1" d="M320.1,80a6,6,0,0,1-.3,2,3.77,3.77,0,0,1-.9,1.5,4.19,4.19,0,0,1-1.4.9,4.67,4.67,0,0,1-1.7.3,4.75,4.75,0,0,1-2.4-.6,6.55,6.55,0,0,1-1.8-1.5l1-1.2a4.07,4.07,0,0,0,1.4,1.2,3.53,3.53,0,0,0,1.7.4,2.56,2.56,0,0,0,1.9-.8,3.2,3.2,0,0,0,.8-2.3,5.07,5.07,0,0,0-.2-1.3,3.33,3.33,0,0,0-.6-1c-.3-.3-.6-.5-.9-.8a10.91,10.91,0,0,0-1.1-.6,5.67,5.67,0,0,1-1.3-.8,5.24,5.24,0,0,1-1.1-1,5.67,5.67,0,0,1-.8-1.3,4.84,4.84,0,0,1-.3-1.8,4.64,4.64,0,0,1,.4-2.1,4,4,0,0,1,1-1.5,4.19,4.19,0,0,1,1.4-.9,4.15,4.15,0,0,1,1.6-.3,4.64,4.64,0,0,1,2.1.4,4.43,4.43,0,0,1,1.5,1.2l-1,1.2a2.59,2.59,0,0,0-1.1-1,3.19,3.19,0,0,0-1.4-.3,3.55,3.55,0,0,0-1,.2,2.36,2.36,0,0,0-.9.6,2.07,2.07,0,0,0-.6,1,3.18,3.18,0,0,0-.2,1.4,3.73,3.73,0,0,0,.2,1.2,1.46,1.46,0,0,0,.6.9,2.18,2.18,0,0,0,.9.7,8.79,8.79,0,0,1,1,.6,9.13,9.13,0,0,1,1.3.8,10.59,10.59,0,0,1,1.2,1,3.53,3.53,0,0,1,.8,1.3C320,78.7,320.1,79.3,320.1,80Z"/><path class="cls-1" d="M338.4,75.8a13.7,13.7,0,0,1-.4,3.6,10.23,10.23,0,0,1-1.1,2.8,5.16,5.16,0,0,1-1.8,1.8,5.1,5.1,0,0,1-4.8,0,5.16,5.16,0,0,1-1.8-1.8,7.82,7.82,0,0,1-1.1-2.8,19.82,19.82,0,0,1-.4-3.6,13.7,13.7,0,0,1,.4-3.6,7.82,7.82,0,0,1,1.1-2.8,5.16,5.16,0,0,1,1.8-1.8,5.1,5.1,0,0,1,4.8,0,5.16,5.16,0,0,1,1.8,1.8,10.23,10.23,0,0,1,1.1,2.8A13.7,13.7,0,0,1,338.4,75.8Zm-1.7,0a26.42,26.42,0,0,0-.2-2.9,10.49,10.49,0,0,0-.7-2.3,4.81,4.81,0,0,0-1.2-1.6,2.71,2.71,0,0,0-3.4,0,4,4,0,0,0-1.2,1.6,7.75,7.75,0,0,0-.7,2.3,13.68,13.68,0,0,0-.2,2.9,26.42,26.42,0,0,0,.2,2.9,13.7,13.7,0,0,0,.7,2.4,4,4,0,0,0,1.2,1.6,2.71,2.71,0,0,0,3.4,0,4,4,0,0,0,1.2-1.6,8.43,8.43,0,0,0,.7-2.4A26.42,26.42,0,0,0,336.7,75.8Z"/><path class="cls-1" d="M346.4,84.3v-17h1.7V82.7h4.8v1.6Z"/><path class="cls-1" d="M361.6,83.3a1.4,1.4,0,0,1-.3.9.83.83,0,0,1-.8.3,1.14,1.14,0,0,1-.8-.3,1.22,1.22,0,0,1-.3-.9,1.14,1.14,0,0,1,.3-.8,1.23,1.23,0,0,1,.8-.4.91.91,0,0,1,.8.4A1.14,1.14,0,0,1,361.6,83.3Z"/><path class="cls-1" d="M377.2,84.1a4.65,4.65,0,0,1-2.3.6,4.3,4.3,0,0,1-2.5-.7,6.56,6.56,0,0,1-1.8-1.9,7.82,7.82,0,0,1-1.1-2.8,13.42,13.42,0,0,1-.4-3.5,13.7,13.7,0,0,1,.4-3.6,7.91,7.91,0,0,1,1.2-2.8,8.22,8.22,0,0,1,1.8-1.9,4.81,4.81,0,0,1,2.4-.7,5.45,5.45,0,0,1,2.2.5,3.75,3.75,0,0,1,1.7,1.6L377.7,70a2.93,2.93,0,0,0-1.3-1.2,2.82,2.82,0,0,0-1.5-.4,2.79,2.79,0,0,0-1.8.6,4.17,4.17,0,0,0-1.3,1.6A13.49,13.49,0,0,0,371,73a12.92,12.92,0,0,0-.3,2.9,11.43,11.43,0,0,0,.3,2.8,6.9,6.9,0,0,0,.8,2.3,4.17,4.17,0,0,0,1.3,1.6,2.79,2.79,0,0,0,1.8.6,3.37,3.37,0,0,0,1.7-.5,3.33,3.33,0,0,0,1.2-1.4l1.1,1.1A4.62,4.62,0,0,1,377.2,84.1Z"/><path class="cls-1" d="M396.6,75.8a13.7,13.7,0,0,1-.4,3.6,10.23,10.23,0,0,1-1.1,2.8,5.16,5.16,0,0,1-1.8,1.8,5.1,5.1,0,0,1-4.8,0,5.16,5.16,0,0,1-1.8-1.8,7.82,7.82,0,0,1-1.1-2.8,19.82,19.82,0,0,1-.4-3.6,13.7,13.7,0,0,1,.4-3.6,10.23,10.23,0,0,1,1.1-2.8,5.16,5.16,0,0,1,1.8-1.8,5.1,5.1,0,0,1,4.8,0,5.16,5.16,0,0,1,1.8,1.8,10.23,10.23,0,0,1,1.1,2.8A13.7,13.7,0,0,1,396.6,75.8Zm-1.8,0a26.42,26.42,0,0,0-.2-2.9,10.49,10.49,0,0,0-.7-2.3,4,4,0,0,0-1.2-1.6,2.71,2.71,0,0,0-3.4,0,4,4,0,0,0-1.2,1.6,7.75,7.75,0,0,0-.7,2.3,13.68,13.68,0,0,0-.2,2.9,26.42,26.42,0,0,0,.2,2.9,13.7,13.7,0,0,0,.7,2.4,4,4,0,0,0,1.2,1.6,2.71,2.71,0,0,0,3.4,0,4,4,0,0,0,1.2-1.6,8.43,8.43,0,0,0,.7-2.4A13.68,13.68,0,0,0,394.8,75.8Z"/><rect class="cls-2" x="1.1" y="56.3" width="400" height="5"/></g></g></svg>