<svg xmlns="http://www.w3.org/2000/svg" viewBox="0 0 586.4 173.83"><defs><style>.cls-1{fill:#932222;}.cls-2{fill:#fffefd;}.cls-3{fill:#c69c6d;}</style></defs><title>Asset 2</title><g id="Layer_2" data-name="Layer 2"><g id="Layer_1-2" data-name="Layer 1"><rect class="cls-1" x="227.13" y="60.06" width="359.27" height="85.6"/><path class="cls-1" d="M43.28,118.53c0,5.9-2.65,10.24-8.08,13.14-2.65,1.44-6.39,2.29-11.21,2.65-1.32,0-5.3.12-11.81.12H1.57c-1,0-1.45-.24-1.45-.72S1,133,2.77,133c2.05,0,3.38-.24,3.74-.6s.6-1.81.6-4v-47a14.75,14.75,0,0,0-.36-4.46c-.36-.72-1.93-1.08-4.46-1.08-1.57,0-2.29-.36-2.29-1S.72,74,2.17,74H3.26a9.41,9.41,0,0,0,1.68.24h17c6.27,0,11,1.09,14,3.14a11.62,11.62,0,0,1,5.42,10.36,11.72,11.72,0,0,1-4.46,9.65,23.75,23.75,0,0,1-12.42,4.7v.48q8,.54,12.3,3.26Q43.28,110,43.28,118.53Zm-11.69-30c0-5.55-1.33-9.29-3.86-11.09q-2-1.45-7.6-1.45c-1,0-2.53.12-4.58.24v25.2h.73l4.82-.12a10.14,10.14,0,0,0,7.71-3.5C30.74,95.5,31.59,92.36,31.59,88.51Zm2.53,29.05c0-7.35-3-11.81-8.92-13.62-1.69-.48-4.95-.72-9.65-.72v25.92c0,1.68.12,2.65.48,2.89.61.36,2.17.6,4.83.6a12.31,12.31,0,0,0,9.52-3.86C32.91,126.24,34.12,122.5,34.12,117.56Z"/><path class="cls-1" d="M66.19,133.84c0,.36-.24.48-.73.48H50.88c-1,0-1.45-.12-1.45-.48s.6-.61,1.93-.73c1.69-.12,2.65-.36,2.77-.6a21.89,21.89,0,0,0,.12-3.74V100.56a25.9,25.9,0,0,0-.12-4c-.12-.36-.6-.6-1.33-.6H50.27c-.48,0-.72-.24-.72-.6s.36-.6,1.08-.6H65c1,0,1.45.24,1.45.72s-1,.6-3,.6q-1.26,0-1.44.36a7.84,7.84,0,0,0-.24,2.42v32.79c0,.6.24,1,.6,1.08a17,17,0,0,0,3.13.48A.68.68,0,0,1,66.19,133.84Z"/><path class="cls-1" d="M97.77,123.11a10.49,10.49,0,0,1-4.22,8.32,15.39,15.39,0,0,1-10.12,3.49,18.09,18.09,0,0,1-9.17-2.65,2.11,2.11,0,0,0-.72-.12c-.36,0-.6.24-.6.84a4.49,4.49,0,0,1-.24,1.45.8.8,0,0,1-.85.6c-.6,0-.84-.24-.84-.84,0-.12,0-1,.12-2.65s.12-3,.12-4.22V123c0-1.09.24-1.69.84-1.69s1,.84,1.33,2.65c1.09,6.39,4.58,9.53,10.25,9.53,4.82,0,7.35-2.42,7.35-7.24a7.83,7.83,0,0,0-1.69-5.18c-1.2-1.33-3.37-2.77-6.75-4.46-4.46-2.17-7.23-4-8.44-5.19a8.76,8.76,0,0,1-2.29-6.27,10.16,10.16,0,0,1,3.5-7.83,12.87,12.87,0,0,1,8.8-3.14,14.92,14.92,0,0,1,7,2,1.7,1.7,0,0,0,.73.24c.36,0,.72-.36.72-1.2s.48-1.21,1.08-1.21.85.24.85.85a2.11,2.11,0,0,1-.12.72,31.82,31.82,0,0,0-.12,3.62c0,.84.12,2.41.24,4.7,0,.24.12.48.12.72,0,.73-.24,1.09-.72,1.09s-.85-.49-1.09-1.57a10.81,10.81,0,0,0-3.13-6A7.73,7.73,0,0,0,84,95.86c-4.22,0-6.27,2.17-6.27,6.63a7.07,7.07,0,0,0,1.69,4.82A8.06,8.06,0,0,0,81.38,109c.72.36,2.77,1.45,6.15,3a27,27,0,0,1,8,5.3A8.31,8.31,0,0,1,97.77,123.11Z"/><path class="cls-1" d="M135.51,105.26c0,.85-.36,1.21-1.09,1.21s-1.2-.48-1.2-1.57a14.41,14.41,0,0,0-1.45-5.66c-1.08-2-3.62-3-7.59-3a24.74,24.74,0,0,0-2.66.12v35c0,1.08.85,1.68,2.54,1.68s2.53.24,2.53.73-.49.6-1.45.6H111c-1.2,0-1.68-.24-1.68-.6s1-.61,2.89-.73a4.21,4.21,0,0,0,1.45-.12.84.84,0,0,0,.72-1c0-.48.12-1.93.12-4.46V96.1c-4.58,0-7.47.36-8.8,1.33s-2.29,3.25-2.77,6.87c-.12,1.33-.61,1.93-1.09,1.93s-.72-.6-.72-1.93q0-2.53.72-9.76h20.26c1.8,0,5.42,0,11-.13a12.77,12.77,0,0,0,1.81-.24L135,96l.24,3,.24,3.61.12,1.57A5.28,5.28,0,0,0,135.51,105.26Z"/><path class="cls-1" d="M174.93,132.15c0,1.81-1.57,2.77-4.82,2.77a9.5,9.5,0,0,1-7.6-3.49,8.06,8.06,0,0,1-1.68-3.14c-.25-1.08-.61-3.49-1.09-7.35-.24-2.53-1.08-4.22-2.41-5.19s-3.5-1.56-6.75-1.68v18c-.12.84,1.32,1.2,4.34,1.2.6,0,1,.25,1,.61s-.36.6-1.2.6h-14c-1.56,0-2.41-.24-2.41-.6s.24-.61.85-.61h1.2c1.93,0,3-.36,3-1.2V97.67c0-.6-.12-1.09-.48-1.21a5.47,5.47,0,0,0-2.53-.36c-1.33,0-2.05-.24-2.05-.72s.36-.6,1.21-.6H156a17,17,0,0,1,9.41,2.41,7.12,7.12,0,0,1,3.49,6.27,8.09,8.09,0,0,1-3.73,6.87c-2.54,1.81-6,2.77-10.49,3,4.82.48,8.2,1.81,10,3.86s3,5.67,3.5,11q.54,5.43,3.26,5.43c.24,0,.48-.12.48-.24a5.78,5.78,0,0,1-.24-.61,4.72,4.72,0,0,1-.24-.72c0-1.09.6-1.57,1.68-1.57S174.93,130.94,174.93,132.15Zm-13.74-28.09c0-5.18-2.53-7.84-7.72-7.84a4.57,4.57,0,0,0-2.41.36c-.36.25-.48.85-.48,1.81v14.23C157.69,112.62,161.19,109.85,161.19,104.06Z"/><path class="cls-1" d="M215.92,114.79A19.94,19.94,0,0,1,210.5,129a17.74,17.74,0,0,1-13.39,5.91A18.92,18.92,0,0,1,182.89,129a20.07,20.07,0,0,1-5.79-14.58c0-5.91,1.81-10.85,5.55-14.59a19.15,19.15,0,0,1,14.1-5.67,18.08,18.08,0,0,1,13.75,5.91A21.16,21.16,0,0,1,215.92,114.79Zm-8.2.24c0-6.75-1.32-12.06-4.1-15.91a8.09,8.09,0,0,0-7.23-3.74c-4.22,0-7.35,2.29-9.16,7a32.7,32.7,0,0,0-2,12.3c0,5.91,1.08,10.61,3.13,14a9.65,9.65,0,0,0,8.68,5.07C204.23,133.72,207.72,127.45,207.72,115Z"/><path class="cls-2" d="M275.48,117.32a17,17,0,0,1-5.67,12.78,19.61,19.61,0,0,1-13.74,5.3q-4.71,0-11.21-2.89a8,8,0,0,0-2.66-.72c-.72,0-1.08.84-1.32,2.41a1.05,1.05,0,0,1-1.09,1.2c-.6,0-.84-.36-.84-1.08a2.74,2.74,0,0,1,.12-1.09,73.67,73.67,0,0,0,.72-9.88c0-.6,0-2.17-.12-4.82,0-.37-.12-.85-.12-1.45,0-.84.36-1.33,1.09-1.33s1,.73,1.2,2c1.57,10.37,6.39,15.68,14.71,15.68,3.5,0,6.27-1,8.2-3s2.89-4.82,2.89-8.44a13.05,13.05,0,0,0-2.77-8.32c-1.93-2.29-5.06-4.58-9.65-6.87-5.54-2.77-9.28-5.3-11.45-8a14.07,14.07,0,0,1-3.25-9.53,16.13,16.13,0,0,1,4.7-11.93A15.87,15.87,0,0,1,257,72.71c1.93,0,4.7.73,8.2,2.05a8.63,8.63,0,0,0,2.65.73c.61,0,1.09-.12,1.21-.36a5.09,5.09,0,0,0,.6-1.81.92.92,0,0,1,1-.85c.6,0,.84.36.84,1.09a2.66,2.66,0,0,1-.12,1.08c-.12,1.45-.24,3.14-.24,5.07a33.31,33.31,0,0,0,.48,6.63l.12,1.44c0,.61-.24,1-.72,1s-1.09-.73-1.33-2a15.28,15.28,0,0,0-4.58-8.56,11.4,11.4,0,0,0-8-3.5,9,9,0,0,0-6.87,2.78c-1.69,1.8-2.53,4.34-2.53,7.59a11.11,11.11,0,0,0,3.74,8.92c1.44,1.33,4.46,3,9,5.43,5.42,2.77,9.4,5.54,11.69,8.32A16.55,16.55,0,0,1,275.48,117.32Z"/><path class="cls-2" d="M319.36,114.79A19.94,19.94,0,0,1,313.94,129a17.74,17.74,0,0,1-13.39,5.91A18.92,18.92,0,0,1,286.33,129a20.07,20.07,0,0,1-5.79-14.58c0-5.91,1.81-10.85,5.55-14.59a19.15,19.15,0,0,1,14.1-5.67,18.08,18.08,0,0,1,13.75,5.91A21.16,21.16,0,0,1,319.36,114.79Zm-8.2.24c0-6.75-1.32-12.06-4.1-15.91a8.09,8.09,0,0,0-7.23-3.74c-4.22,0-7.35,2.29-9.16,7a32.7,32.7,0,0,0-2.05,12.3c0,5.91,1.08,10.61,3.13,14a9.65,9.65,0,0,0,8.68,5.07C307.67,133.72,311.16,127.45,311.16,115Z"/><path class="cls-2" d="M357.22,126.48c0,3.26,0,6-.12,8.2-.37,0-.73.12-1.33.12a10.6,10.6,0,0,1-1.33-.12,25.26,25.26,0,0,0-3.25-.12h-4.1l-14.83-.12h-7.11c-.73,0-1.09-.24-1.09-.6s1.09-.61,3.38-.73a1.41,1.41,0,0,0,1.2-.48,5,5,0,0,0,.25-1.93V101.53c0-3.26-.25-5-.73-5.19a4.61,4.61,0,0,0-1.57-.12A4.57,4.57,0,0,1,325,96.1c-.61,0-1-.24-1-.72s.36-.6,1.09-.6h14.1c1.09,0,1.69.24,1.69.72s-1,.48-2.89.6c-1,0-1.45.24-1.69.61a17.22,17.22,0,0,0-.24,3.73v32.31c2.29,0,4,.12,5.06.12,6.27,0,10.13-.6,11.7-1.81,1.32-1,2.05-3,2.41-6.26.12-1.45.48-2,1-2S357.22,124,357.22,126.48Z"/><path class="cls-2" d="M398.69,95.5c0,.36-.48.6-1.45.6h-2.17c-1,0-1.44.61-1.44,1.69v16a95.68,95.68,0,0,1-.37,10.85,13.24,13.24,0,0,1-1.8,4.83c-2.3,3.61-6.27,5.42-12.06,5.42-4.7,0-8.56-1.08-11.45-3.25-2.66-2-3.86-5.91-3.86-11.7V101.65c0-3.14-.12-4.82-.36-5.07a4.39,4.39,0,0,0-2.53-.48c-1.21,0-1.81-.24-1.81-.72s.36-.6,1.2-.6h13.75c1.08,0,1.56.24,1.56.72s-1.08.84-3.25.72c-.6,0-1,.12-1.09.36a6.58,6.58,0,0,0-.12,1.93v20.86c0,5.67.73,9.4,2.17,11q2.36,2.9,7.24,2.89c4.46,0,7.47-1.8,9.16-5.54.84-1.81,1.2-4.82,1.2-8.92v-21c0-.72-.12-1.21-.48-1.33a7.7,7.7,0,0,0-2.41-.24c-1.33,0-2.05-.24-2.05-.72s.36-.6,1.09-.6h9.76C398.21,94.78,398.69,95,398.69,95.5Z"/><path class="cls-2" d="M435.58,105.26c0,.85-.36,1.21-1.08,1.21s-1.21-.48-1.21-1.57a14.24,14.24,0,0,0-1.45-5.66c-1.08-2-3.61-3-7.59-3a24.57,24.57,0,0,0-2.65.12v35c0,1.08.84,1.68,2.53,1.68s2.53.24,2.53.73-.48.6-1.45.6h-14.1c-1.21,0-1.69-.24-1.69-.6s1-.61,2.89-.73a4.18,4.18,0,0,0,1.45-.12.84.84,0,0,0,.72-1c0-.48.12-1.93.12-4.46V96.1c-4.58,0-7.47.36-8.8,1.33s-2.29,3.25-2.77,6.87c-.12,1.33-.6,1.93-1.09,1.93s-.72-.6-.72-1.93q0-2.53.72-9.76H422.2c1.81,0,5.42,0,11-.13a12.77,12.77,0,0,0,1.81-.24L435.1,96l.24,3,.24,3.61.12,1.57A5.28,5.28,0,0,0,435.58,105.26Z"/><path class="cls-2" d="M455.47,133.84c0,.36-.24.48-.72.48H440.16c-1,0-1.45-.12-1.45-.48s.61-.61,1.93-.73c1.69-.12,2.66-.36,2.78-.6a21.89,21.89,0,0,0,.12-3.74V100.56a25.9,25.9,0,0,0-.12-4c-.12-.36-.61-.6-1.33-.6h-2.77c-.48,0-.73-.24-.73-.6s.37-.6,1.09-.6H454q1.44,0,1.44.72c0,.36-1,.6-3,.6-.85,0-1.33.12-1.45.36a7.84,7.84,0,0,0-.24,2.42v32.79c0,.6.24,1,.6,1.08a17.13,17.13,0,0,0,3.14.48C455.11,133.23,455.47,133.48,455.47,133.84Z"/><path class="cls-2" d="M498.87,114.79A19.9,19.9,0,0,1,493.45,129a17.73,17.73,0,0,1-13.38,5.91A18.93,18.93,0,0,1,465.84,129a20.07,20.07,0,0,1-5.79-14.58c0-5.91,1.81-10.85,5.55-14.59a19.18,19.18,0,0,1,14.11-5.67,18.07,18.07,0,0,1,13.74,5.91A21.11,21.11,0,0,1,498.87,114.79Zm-8.07.24c0-6.75-1.33-12.06-4.1-15.91a8.12,8.12,0,0,0-7.24-3.74c-4.22,0-7.35,2.29-9.16,7a32.9,32.9,0,0,0-2.05,12.3c0,5.91,1.09,10.61,3.14,14a9.64,9.64,0,0,0,8.68,5.07C487.18,133.72,490.8,127.45,490.8,115Z"/><path class="cls-2" d="M541.55,95.38c0,.36-.6.6-1.93.6h-2.17c-.48,0-.84.12-1,.36a9.37,9.37,0,0,0-.12,2.41v32.07a21,21,0,0,1-.12,3.62c0,.36-.36.48-.85.48s-2.65-2.41-6.14-7.35c-.37-.6-1.09-1.57-1.93-2.65a13,13,0,0,1-1-1.33c-2.89-3.86-8.2-11.09-15.79-21.7V129.5c0,2.17.36,3.25,1,3.37a22.76,22.76,0,0,0,3.38.12h.36c.72,0,1.09.24,1.09.61s-.61.6-1.93.6c-.24,0-1.21,0-2.9-.12-.84,0-1.68-.12-2.29-.12a7.51,7.51,0,0,0-1.69.12,33.94,33.94,0,0,1-3.61.12c-1,0-1.45-.24-1.45-.6s.6-.61,1.69-.61h.72l1.09-.12c1.44-.12,2.17-.36,2.17-.84,0-.24.12-1.09.12-2.53V105.39c0-4.34-.24-7-.73-7.84-.72-1.21-2.05-1.81-4.09-1.81-1.45,0-2.17-.24-2.17-.72s.36-.61,1.08-.61h11.09L534,122.63V98.39a10.63,10.63,0,0,0-.12-2.53c-.12-.24-.61-.36-1.45-.36H530.1c-1.09,0-1.69-.24-1.69-.6s.24-.49.85-.49,2.53-.12,5.9-.12a50.47,50.47,0,0,1,5.55.12C541.31,94.9,541.55,95,541.55,95.38Z"/><path class="cls-2" d="M572.29,123.11a10.49,10.49,0,0,1-4.22,8.32A15.39,15.39,0,0,1,558,134.92a18,18,0,0,1-9.16-2.65,2.19,2.19,0,0,0-.73-.12c-.36,0-.6.24-.6.84a4.49,4.49,0,0,1-.24,1.45.8.8,0,0,1-.85.6c-.6,0-.84-.24-.84-.84,0-.12,0-1,.12-2.65s.12-3,.12-4.22V123c0-1.09.24-1.69.85-1.69s1,.84,1.32,2.65c1.09,6.39,4.58,9.53,10.25,9.53,4.82,0,7.35-2.42,7.35-7.24a7.88,7.88,0,0,0-1.68-5.18c-1.21-1.33-3.38-2.77-6.76-4.46-4.46-2.17-7.23-4-8.44-5.19a8.76,8.76,0,0,1-2.29-6.27,10.16,10.16,0,0,1,3.5-7.83,12.89,12.89,0,0,1,8.8-3.14,14.92,14.92,0,0,1,7,2,1.75,1.75,0,0,0,.73.24c.36,0,.72-.36.72-1.2s.48-1.21,1.09-1.21.84.24.84.85a2.11,2.11,0,0,1-.12.72,31.82,31.82,0,0,0-.12,3.62c0,.84.12,2.41.24,4.7,0,.24.12.48.12.72,0,.73-.24,1.09-.72,1.09s-.85-.49-1.09-1.57a10.81,10.81,0,0,0-3.13-6,7.73,7.73,0,0,0-5.67-2.29c-4.22,0-6.27,2.17-6.27,6.63a7.07,7.07,0,0,0,1.69,4.82A8.26,8.26,0,0,0,555.9,109c.72.36,2.77,1.45,6.15,3a27,27,0,0,1,8,5.3A7.82,7.82,0,0,1,572.29,123.11Z"/><path class="cls-3" d="M95.48,56.68c-.36-1.09-1-2-1.32-3.26A15.58,15.58,0,0,1,93,48.72a31.64,31.64,0,0,0-.6-4.7,12.29,12.29,0,0,1,1.08-6.51,11.46,11.46,0,0,0,.85-4.94,9,9,0,0,0-.73-3.14c-.12-.36-.48-.84-.6-1.2A34.62,34.62,0,0,0,88,21.11a22.18,22.18,0,0,1-4.34-5.18c-.48-.84-1.21-1.69-1.69-2.53a12,12,0,0,1-1.33-7.11,7.42,7.42,0,0,1,.12-1.57A12.66,12.66,0,0,1,82,.62c.12-.36,0-.6-.36-.6a8.89,8.89,0,0,0-3,1,9.32,9.32,0,0,0-3.73,3.74,17,17,0,0,0-1.45,4.22,12.88,12.88,0,0,0,.12,5.66c0,.12.12.12.12.25s-.12.24-.12.36-.24.24-.36.12-.24-.12-.24-.24a13.41,13.41,0,0,1-1.09-3.74c-.12-.48-.12-1-.24-1.45a1,1,0,0,0-.24-.72c-.12,0-.12.12-.24.24s-.12.24-.12.36c-.12.85-.24,1.57-.36,2.41,0,.12-.12.24-.24.49a.46.46,0,0,1-.73,0l-.36-.37A4.12,4.12,0,0,1,70,8q1.81-2.34,4-4.7h0C75.23,1.83,66.91.5,65.83.38A29.19,29.19,0,0,0,57.27.26c-5.19.6-11.22,2.05-15.8,4.82a13.12,13.12,0,0,0-3.13,2.65,12.92,12.92,0,0,0-1.69,1.93c-.12.24-.72,2.41-.12,1.69a9.72,9.72,0,0,1,4.22-2,14.78,14.78,0,0,1,6.87.12,22.28,22.28,0,0,0,7.48.48h0c1.8-.24,1,.85.12,1.45a9,9,0,0,1-3.62.84c-2.17.24-4.58,0-6.63.49-4,1-8.08,5.42-10.61,8.43A24.81,24.81,0,0,0,32.07,25c-.12.36-1.69,3.5-2.05,2.78a.47.47,0,0,1-.12-.37,13.36,13.36,0,0,1,.84-3.13,27.13,27.13,0,0,1,4-6.39,21.15,21.15,0,0,0,1.45-1.69,1.76,1.76,0,0,0,.36-.6,1.43,1.43,0,0,0-.72.24c-6.27,2.89-10.25,8-14.59,13.14a35.12,35.12,0,0,0-6.63,11C11.81,48,12.66,58.13,16.15,66c0,0,13.39-2.53,25,10.49s29.06,11.7,29.06,11.7C55.82,75,62.93,48.6,62.93,48.6c2.17.73,4.34,1.45,6.51,2.29a.63.63,0,0,1,.36.85,5.84,5.84,0,0,0,1.09,5.54A12.37,12.37,0,0,1,73.54,63a5,5,0,0,1-.24,2.65c-.6,1.33-1,2.65-1.45,4.1A3.06,3.06,0,0,0,73.06,73a13.72,13.72,0,0,1,1.45,1.2A12.22,12.22,0,0,0,78,76.69a1.74,1.74,0,0,0,.85.24c.84.12,1-.12,1.08-1a16,16,0,0,0-.48-4.82c0-.36-.12-.73-.12-1.09,0-1,.24-1.2,1.32-1.2a1.9,1.9,0,0,1,2.17,1.93c.12,1.08.12,2,.25,3.13,0,1.45-.13,2.77,0,4.22A4.07,4.07,0,0,0,87,82a.94.94,0,0,0,.61-.24c.24-.49.48-1,.72-1.57.12-.36.12-.72.24-1.21.36-2.53,1.93-4.22,3.86-5.66,1.08-.85,2.29-1.57,3.37-2.53a4.78,4.78,0,0,0,2-4.34,19.56,19.56,0,0,0-.84-5.91A20.42,20.42,0,0,1,95.48,56.68Z"/><path class="cls-3" d="M199,167.75a6.15,6.15,0,0,1-.51,2.66,4.9,4.9,0,0,1-1.29,1.72,4.59,4.59,0,0,1-1.72.93,6.51,6.51,0,0,1-1.81.27H188.4V152.85H193a7.66,7.66,0,0,1,1.8.23,4.74,4.74,0,0,1,1.7.8,4.19,4.19,0,0,1,1.26,1.53,5.36,5.36,0,0,1,.49,2.44,5.74,5.74,0,0,1-.25,1.81,4.58,4.58,0,0,1-.65,1.33,3.94,3.94,0,0,1-.94.93,4.63,4.63,0,0,1-1.08.56v.06a4.34,4.34,0,0,1,2.36,1.43,5.23,5.23,0,0,1,.88,1.57A6.37,6.37,0,0,1,199,167.75Zm-2.58-9.59a4.28,4.28,0,0,0-.3-1.7,2.91,2.91,0,0,0-.81-1.11,3,3,0,0,0-1.14-.59,4.82,4.82,0,0,0-1.31-.18h-2.51v7.24h2.57a4.15,4.15,0,0,0,1.26-.2,3,3,0,0,0,1.11-.65,3.45,3.45,0,0,0,.81-1.14A3.86,3.86,0,0,0,196.38,158.16Zm.58,9.46a4.72,4.72,0,0,0-.35-2,3.7,3.7,0,0,0-.89-1.28,3.5,3.5,0,0,0-1.23-.72,4,4,0,0,0-1.32-.23h-2.86v8.16h2.86a4.82,4.82,0,0,0,1.48-.23,3.45,3.45,0,0,0,1.21-.72,3.26,3.26,0,0,0,.81-1.24A5,5,0,0,0,197,167.62Z"/><path class="cls-3" d="M208.25,173.33V152.85h2v20.48Z"/><path class="cls-3" d="M229.63,168.1a6.69,6.69,0,0,1-.41,2.41,5.36,5.36,0,0,1-1.11,1.8,4.77,4.77,0,0,1-1.67,1.12,5.09,5.09,0,0,1-2,.4,6.36,6.36,0,0,1-2.88-.67,5.79,5.79,0,0,1-2.13-1.77l1.25-1.41a4.48,4.48,0,0,0,1.68,1.47,4.39,4.39,0,0,0,2,.52,3.07,3.07,0,0,0,2.33-1,3.88,3.88,0,0,0,.94-2.81,3.83,3.83,0,0,0-.29-1.53,4.09,4.09,0,0,0-.78-1.19,6.62,6.62,0,0,0-1.11-.92,14.1,14.1,0,0,0-1.32-.75,12.43,12.43,0,0,1-1.59-.92,6.15,6.15,0,0,1-1.32-1.17,5.26,5.26,0,0,1-.91-1.57A6,6,0,0,1,220,158a6.5,6.5,0,0,1,.44-2.48,5.12,5.12,0,0,1,1.17-1.76,5,5,0,0,1,1.66-1.06,5.54,5.54,0,0,1,1.94-.34,6.4,6.4,0,0,1,2.5.47,4.52,4.52,0,0,1,1.87,1.49l-1.24,1.42a3.42,3.42,0,0,0-1.36-1.2,4.06,4.06,0,0,0-1.71-.36,3.31,3.31,0,0,0-1.2.22,2.79,2.79,0,0,0-1.06.68,3.42,3.42,0,0,0-.75,1.18A4.67,4.67,0,0,0,222,158a4,4,0,0,0,.26,1.5,3.67,3.67,0,0,0,.71,1.13,5.17,5.17,0,0,0,1,.87c.4.25.81.48,1.23.7a15.41,15.41,0,0,1,1.61.92,7.57,7.57,0,0,1,1.43,1.22,5.35,5.35,0,0,1,1,1.62A5.73,5.73,0,0,1,229.63,168.1Z"/><path class="cls-3" d="M242.68,154.58v18.75h-2V154.58h-3.93v-1.73h9.89v1.73Z"/><path class="cls-3" d="M263.1,173.33l-3.7-9.49h-2.63v9.49h-2V152.85h4.92a7,7,0,0,1,1.95.27,4.58,4.58,0,0,1,1.68.91,4.68,4.68,0,0,1,1.19,1.68,6.46,6.46,0,0,1,.45,2.55,6.77,6.77,0,0,1-.34,2.24,5.17,5.17,0,0,1-.86,1.58,4.18,4.18,0,0,1-1.19,1,4,4,0,0,1-1.29.44l4,9.83Zm-.11-15a4.66,4.66,0,0,0-.31-1.83,3,3,0,0,0-.81-1.17,2.76,2.76,0,0,0-1.15-.6,5.11,5.11,0,0,0-1.35-.18h-2.6v7.67h2.69a3.35,3.35,0,0,0,2.59-1A4.12,4.12,0,0,0,263,158.36Z"/><path class="cls-3" d="M287,163.06a19.34,19.34,0,0,1-.46,4.39,11.37,11.37,0,0,1-1.33,3.39,6.56,6.56,0,0,1-2.11,2.2,5.17,5.17,0,0,1-2.84.79,5.22,5.22,0,0,1-2.85-.79,6.64,6.64,0,0,1-2.14-2.2,10.87,10.87,0,0,1-1.34-3.39,19.31,19.31,0,0,1-.47-4.39,19.64,19.64,0,0,1,.45-4.35,11.11,11.11,0,0,1,1.32-3.39,6.61,6.61,0,0,1,2.12-2.18,5.41,5.41,0,0,1,2.91-.78,5.24,5.24,0,0,1,2.84.78,6.68,6.68,0,0,1,2.11,2.18,11.37,11.37,0,0,1,1.33,3.39A19,19,0,0,1,287,163.06Zm-2.11,0a20,20,0,0,0-.29-3.47,10.55,10.55,0,0,0-.88-2.81,5.63,5.63,0,0,0-1.46-1.88,3.14,3.14,0,0,0-2-.69,3.27,3.27,0,0,0-2.07.69,5.39,5.39,0,0,0-1.46,1.88,11.34,11.34,0,0,0-.87,2.81,20.91,20.91,0,0,0,0,6.94,11.72,11.72,0,0,0,.87,2.84,5.24,5.24,0,0,0,1.46,1.91,3.27,3.27,0,0,0,2.07.69,3.18,3.18,0,0,0,2-.69,5.21,5.21,0,0,0,1.44-1.91,10.9,10.9,0,0,0,.87-2.84A20,20,0,0,0,284.89,163.06Z"/><path class="cls-3" d="M305.49,168.1a6.69,6.69,0,0,1-.4,2.41,5.23,5.23,0,0,1-1.12,1.8,4.73,4.73,0,0,1-1.66,1.12,5.14,5.14,0,0,1-2,.4,6.28,6.28,0,0,1-2.87-.67,5.79,5.79,0,0,1-2.13-1.77l1.24-1.41a4.64,4.64,0,0,0,1.68,1.47,4.43,4.43,0,0,0,2.06.52,3.05,3.05,0,0,0,2.32-1,3.88,3.88,0,0,0,.95-2.81,3.83,3.83,0,0,0-.29-1.53,4.33,4.33,0,0,0-.79-1.19,5.91,5.91,0,0,0-1.11-.92,11.94,11.94,0,0,0-1.32-.75,12.43,12.43,0,0,1-1.59-.92,5.87,5.87,0,0,1-1.31-1.17,5.51,5.51,0,0,1-.92-1.57,6,6,0,0,1-.34-2.13,6.5,6.5,0,0,1,.43-2.48,4.92,4.92,0,0,1,2.84-2.82,5.46,5.46,0,0,1,1.94-.34,6.44,6.44,0,0,1,2.5.47,4.65,4.65,0,0,1,1.87,1.49l-1.25,1.42a3.42,3.42,0,0,0-1.36-1.2,4,4,0,0,0-1.71-.36,3.39,3.39,0,0,0-1.2.22,2.84,2.84,0,0,0-1.05.68,3.59,3.59,0,0,0-.76,1.18,4.68,4.68,0,0,0-.28,1.71,3.75,3.75,0,0,0,1,2.63,5,5,0,0,0,1,.87c.39.25.8.48,1.23.7a15.29,15.29,0,0,1,1.6.92,7.27,7.27,0,0,1,1.43,1.22,5.19,5.19,0,0,1,1,1.62A5.73,5.73,0,0,1,305.49,168.1Z"/><path class="cls-3" d="M327.63,163.06a19.31,19.31,0,0,1-.47,4.39,11.11,11.11,0,0,1-1.33,3.39,6.56,6.56,0,0,1-2.11,2.2,5.5,5.5,0,0,1-5.68,0,6.66,6.66,0,0,1-2.15-2.2,11.38,11.38,0,0,1-1.34-3.39,19.34,19.34,0,0,1-.46-4.39,20.28,20.28,0,0,1,.44-4.35,11.11,11.11,0,0,1,1.32-3.39,6.64,6.64,0,0,1,2.13-2.18,5.41,5.41,0,0,1,2.91-.78,5.21,5.21,0,0,1,2.83.78,6.68,6.68,0,0,1,2.11,2.18,11.11,11.11,0,0,1,1.33,3.39A19,19,0,0,1,327.63,163.06Zm-2.11,0a20,20,0,0,0-.29-3.47,10.55,10.55,0,0,0-.89-2.81,5.51,5.51,0,0,0-1.46-1.88,3.11,3.11,0,0,0-2-.69,3.23,3.23,0,0,0-2.07.69,5.28,5.28,0,0,0-1.46,1.88,10.55,10.55,0,0,0-.87,2.81,20.91,20.91,0,0,0,0,6.94,10.9,10.9,0,0,0,.87,2.84,5.14,5.14,0,0,0,1.46,1.91,3.23,3.23,0,0,0,2.07.69,3.15,3.15,0,0,0,2-.69,5.34,5.34,0,0,0,1.45-1.91,11.72,11.72,0,0,0,.87-2.84A20,20,0,0,0,325.52,163.06Z"/><path class="cls-3" d="M337.23,173.33V152.85h2v18.6h5.84v1.88Z"/><path class="cls-3" d="M355.49,172.09a1.44,1.44,0,0,1-.39,1,1.29,1.29,0,0,1-1,.41,1.23,1.23,0,0,1-.95-.41,1.57,1.57,0,0,1,0-2,1.2,1.2,0,0,1,.95-.44,1.25,1.25,0,0,1,1,.44A1.45,1.45,0,0,1,355.49,172.09Z"/><path class="cls-3" d="M374.36,173.1a5.53,5.53,0,0,1-2.81.73,5.45,5.45,0,0,1-3-.83,7,7,0,0,1-2.2-2.26,11,11,0,0,1-1.37-3.4,17.84,17.84,0,0,1-.48-4.25,18,18,0,0,1,.48-4.28,11.16,11.16,0,0,1,1.38-3.4,7,7,0,0,1,2.22-2.24,5.47,5.47,0,0,1,2.95-.81,6.17,6.17,0,0,1,2.7.6,5.25,5.25,0,0,1,2.1,1.91l-1.3,1.33a4.5,4.5,0,0,0-1.55-1.5,3.75,3.75,0,0,0-1.86-.49,3.66,3.66,0,0,0-2.22.69,5.43,5.43,0,0,0-1.56,1.91,10.53,10.53,0,0,0-.93,2.84,18.91,18.91,0,0,0-.3,3.44,17.76,17.76,0,0,0,.32,3.43,10.5,10.5,0,0,0,.94,2.82,5.49,5.49,0,0,0,1.56,1.93,3.6,3.6,0,0,0,2.21.7,3.38,3.38,0,0,0,2-.62,5,5,0,0,0,1.48-1.63l1.27,1.3A5.76,5.76,0,0,1,374.36,173.1Z"/><path class="cls-3" d="M397.73,163.06a19.34,19.34,0,0,1-.46,4.39,11.37,11.37,0,0,1-1.33,3.39,6.56,6.56,0,0,1-2.11,2.2,5.17,5.17,0,0,1-2.84.79,5.22,5.22,0,0,1-2.85-.79,6.64,6.64,0,0,1-2.14-2.2,10.87,10.87,0,0,1-1.34-3.39,19.31,19.31,0,0,1-.47-4.39,19.64,19.64,0,0,1,.45-4.35,11.11,11.11,0,0,1,1.32-3.39,6.61,6.61,0,0,1,2.12-2.18,5.41,5.41,0,0,1,2.91-.78,5.24,5.24,0,0,1,2.84.78,6.68,6.68,0,0,1,2.11,2.18,11.37,11.37,0,0,1,1.33,3.39A19,19,0,0,1,397.73,163.06Zm-2.11,0a20,20,0,0,0-.29-3.47,10.55,10.55,0,0,0-.88-2.81A5.63,5.63,0,0,0,393,154.9a3.14,3.14,0,0,0-2-.69,3.27,3.27,0,0,0-2.07.69,5.39,5.39,0,0,0-1.46,1.88,11.34,11.34,0,0,0-.87,2.81,20.91,20.91,0,0,0,0,6.94,11.72,11.72,0,0,0,.87,2.84,5.24,5.24,0,0,0,1.46,1.91A3.27,3.27,0,0,0,391,172a3.18,3.18,0,0,0,2-.69,5.21,5.21,0,0,0,1.44-1.91,10.9,10.9,0,0,0,.87-2.84A20,20,0,0,0,395.62,163.06Z"/><rect class="cls-3" x="138.19" y="161.88" width="35.32" height="2.41"/><rect class="cls-3" x="412.89" y="161.88" width="35.32" height="2.41"/></g></g></svg>