<svg xmlns="http://www.w3.org/2000/svg" viewBox="0 0 484.49 97.41"><defs><style>.cls-1{fill:#932222;}.cls-2{fill:#fffefd;}.cls-3{fill:#c69c6d;}</style></defs><title>Asset 1</title><g id="Layer_2" data-name="Layer 2"><g id="Layer_1-2" data-name="Layer 1"><rect class="cls-1" x="186.49" width="298" height="74"/><path class="cls-1" d="M36,50q0,7.37-6.71,10.9Q26.05,62.61,20,63q-1.66.08-9.82.07H1.37c-.82,0-1.23-.2-1.23-.61s.75-.61,2.24-.61c1.73,0,2.75-.18,3.07-.54s.47-1.46.47-3.29V19a12.11,12.11,0,0,0-.29-3.68c-.34-.58-1.57-.89-3.68-.94-1.3,0-1.95-.25-1.95-.76S.6,13,1.8,13h.87a5.69,5.69,0,0,0,1.44.21H18.18q7.8.08,11.62,2.6a9.67,9.67,0,0,1,4.47,8.59,10.06,10.06,0,0,1-3.68,8c-2.45,2.09-5.89,3.41-10.32,3.93v.44q6.57.44,10.25,2.74Q36,43,36,50ZM26.34,25.09q0-6.93-3.18-9.24-1.66-1.22-6.28-1.22c-.82,0-2.09.07-3.82.21V35.77h.65l4-.15a8.15,8.15,0,0,0,6.38-2.92A11.65,11.65,0,0,0,26.34,25.09Zm2.09,24.1q0-9.09-7.36-11.26a32.69,32.69,0,0,0-8-.65v21.5c0,1.4.14,2.19.43,2.39.48.33,1.83.5,4,.5a10.35,10.35,0,0,0,7.94-3.17Q28.43,55.32,28.43,49.19Z"/><path class="cls-1" d="M55,62.68c0,.29-.22.43-.65.43H42.21c-.82,0-1.23-.12-1.23-.37s.53-.52,1.59-.56c1.44-.1,2.2-.27,2.27-.51A22.16,22.16,0,0,0,45,58.54V35.15a20.42,20.42,0,0,0-.14-3.31c-.1-.32-.46-.5-1.09-.55H41.56c-.43,0-.65-.16-.65-.5s.31-.51.94-.51h11.9c.77,0,1.16.2,1.16.58s-.82.46-2.46.51c-.67,0-1.08.1-1.22.32a4.9,4.9,0,0,0-.22,2v27.2a.89.89,0,0,0,.54.93,10.88,10.88,0,0,0,2.56.37C54.69,62.22,55,62.39,55,62.68Z"/><path class="cls-1" d="M81.17,53.85a8.7,8.7,0,0,1-3.46,6.9,12.71,12.71,0,0,1-8.37,2.87,15.21,15.21,0,0,1-7.58-2.24,2.59,2.59,0,0,0-.58-.14c-.28,0-.45.22-.5.68a7,7,0,0,1-.22,1.19.66.66,0,0,1-.72.51A.64.64,0,0,1,59,62.9c0-.1,0-.82.14-2.17s.15-2.5.15-3.46V53.59c0-.91.24-1.37.72-1.37s.84.74,1.08,2.24c.92,5.29,3.75,7.93,8.52,7.93q6.06,0,6.06-6a6.28,6.28,0,0,0-1.45-4.31,19.13,19.13,0,0,0-5.62-3.74c-3.66-1.82-6-3.25-7-4.31a7.27,7.27,0,0,1-1.95-5.17,8.28,8.28,0,0,1,2.89-6.5,10.58,10.58,0,0,1,7.28-2.55,12.43,12.43,0,0,1,5.85,1.66,1.25,1.25,0,0,0,.57.21c.34,0,.56-.34.65-1s.39-1.05.87-1.05a.64.64,0,0,1,.72.72,4,4,0,0,1-.07.58,23.82,23.82,0,0,0-.15,3c0,.72.08,2,.22,3.9a2.54,2.54,0,0,1,.07.65c0,.57-.19.86-.57.86s-.75-.43-.94-1.29a9.44,9.44,0,0,0-2.64-5A6.52,6.52,0,0,0,69.77,31q-5.19,0-5.19,5.53a5.87,5.87,0,0,0,1.37,4,6.06,6.06,0,0,0,1.58,1.36q.87.51,5,2.52a22.66,22.66,0,0,1,6.64,4.42A7.11,7.11,0,0,1,81.17,53.85Z"/><path class="cls-1" d="M112.48,39c0,.66-.28,1-.86,1s-1-.44-1-1.32A11.35,11.35,0,0,0,109.38,34q-1.36-2.51-6.28-2.51c-.48,0-1.22,0-2.23.07v29c0,.91.69,1.39,2.09,1.44s2.09.24,2.09.58-.41.5-1.22.5H92.07c-1,0-1.45-.16-1.45-.5s.8-.53,2.38-.58a3,3,0,0,0,1.16-.15.8.8,0,0,0,.65-.76c0-.4.07-1.62.07-3.65v-26q-5.62-.07-7.32,1.14c-1.13.82-1.89,2.72-2.28,5.73-.14,1.1-.45,1.64-.93,1.64s-.65-.54-.65-1.63c0-1.37.21-4.08.65-8.11h16.81q2.24,0,9.09-.12a6.39,6.39,0,0,0,1.51-.24l.07,1.49.22,2.54.22,3,.14,1.27A8.26,8.26,0,0,1,112.48,39Z"/><path class="cls-1" d="M145.24,61.31q0,2.31-4,2.31a7.82,7.82,0,0,1-6.32-2.95,7,7,0,0,1-1.44-2.58,49.3,49.3,0,0,1-.86-6.11q-.36-3.09-2-4.31c-1.08-.82-2.94-1.27-5.57-1.37V61.17c-.15.67,1.06,1,3.62,1,.52,0,.78.16.78.5s-.34.51-1,.51H116.81c-1.34,0-2-.16-2-.48s.24-.53.72-.53h1c1.64,0,2.46-.34,2.46-1V32.67a1.18,1.18,0,0,0-.4-1.05,5,5,0,0,0-2.09-.25c-1.13,0-1.7-.2-1.7-.58s.34-.51,1-.51h13.64a13.63,13.63,0,0,1,7.76,2,6,6,0,0,1,2.92,5.21,6.72,6.72,0,0,1-3.1,5.71q-3.11,2.19-8.73,2.55c4,.43,6.81,1.48,8.33,3.16s2.49,4.69,2.92,9q.44,4.45,2.67,4.45.36,0,.36-.21a1.85,1.85,0,0,0-.18-.45,1.59,1.59,0,0,1-.18-.6c0-.89.48-1.34,1.44-1.34S145.24,60.3,145.24,61.31ZM133.84,38q0-6.47-6.37-6.46a3.93,3.93,0,0,0-2,.32c-.26.22-.39.73-.39,1.55V45.15Q133.85,45.15,133.84,38Z"/><path class="cls-1" d="M179.22,46.92a16.7,16.7,0,0,1-4.54,11.84,14.64,14.64,0,0,1-11.11,4.86,15.85,15.85,0,0,1-11.8-4.93A16.64,16.64,0,0,1,147,46.63a16.72,16.72,0,0,1,4.58-12.14,15.67,15.67,0,0,1,11.73-4.71,14.86,14.86,0,0,1,11.36,4.93A17.24,17.24,0,0,1,179.22,46.92Zm-6.78.21q0-8.35-3.39-13.17a6.9,6.9,0,0,0-6-3.1q-5.26,0-7.65,5.76a27.21,27.21,0,0,0-1.66,10.22q0,7.42,2.6,11.59a8.08,8.08,0,0,0,7.22,4.18Q172.44,62.61,172.44,47.13Z"/><path class="cls-2" d="M228.58,49a13.87,13.87,0,0,1-4.73,10.57A16.16,16.16,0,0,1,212.49,64a23.83,23.83,0,0,1-9.31-2.38A6.12,6.12,0,0,0,201,61c-.57,0-.93.67-1.08,2-.05.68-.36,1-.94,1s-.72-.29-.72-.87a3.72,3.72,0,0,1,.07-.86,62.18,62.18,0,0,0,.58-8.16c0-.48,0-1.82-.14-4a6.85,6.85,0,0,1-.08-1.15q0-1.08.87-1.08c.48,0,.82.58,1,1.75q1.88,13,12.19,13a9.06,9.06,0,0,0,6.82-2.49A9.7,9.7,0,0,0,222,53a10.47,10.47,0,0,0-2.35-6.89q-2.34-2.85-8-5.66-6.85-3.39-9.52-6.57A11.79,11.79,0,0,1,199.43,26a13.45,13.45,0,0,1,3.86-9.89,13.16,13.16,0,0,1,9.77-3.89,20.37,20.37,0,0,1,6.78,1.66,7.25,7.25,0,0,0,2.24.57,1.37,1.37,0,0,0,1-.29,3.76,3.76,0,0,0,.47-1.51.76.76,0,0,1,.79-.72c.48,0,.72.29.72.86a3.76,3.76,0,0,1-.07.87,35.17,35.17,0,0,0-.22,4.18,32.88,32.88,0,0,0,.36,5.49l.08,1.15c0,.53-.17.8-.65.8s-.89-.56-1.09-1.66a12.9,12.9,0,0,0-3.75-7.11,9.33,9.33,0,0,0-6.64-2.85A7.42,7.42,0,0,0,207.4,16a8.9,8.9,0,0,0-2.13,6.28,9.56,9.56,0,0,0,3.1,7.43,37.88,37.88,0,0,0,7.51,4.47q6.78,3.39,9.74,6.89A12,12,0,0,1,228.58,49Z"/><path class="cls-2" d="M265,46.92a16.7,16.7,0,0,1-4.54,11.84,14.65,14.65,0,0,1-11.12,4.86,15.84,15.84,0,0,1-11.79-4.93,16.64,16.64,0,0,1-4.8-12.06,16.72,16.72,0,0,1,4.58-12.14,15.64,15.64,0,0,1,11.73-4.71,14.88,14.88,0,0,1,11.36,4.93A17.29,17.29,0,0,1,265,46.92Zm-6.78.21q0-8.35-3.39-13.17a6.91,6.91,0,0,0-6-3.1q-5.26,0-7.65,5.76a27,27,0,0,0-1.66,10.22q0,7.42,2.6,11.59a8.07,8.07,0,0,0,7.21,4.18Q258.23,62.61,258.23,47.13Z"/><path class="cls-2" d="M296.4,56.62q0,4-.15,6.78a6.58,6.58,0,0,1-1.08.07l-1.12-.1a25,25,0,0,0-2.7-.11H288l-12.33-.15H269.7c-.63,0-.94-.15-.94-.47s.94-.47,2.82-.61c.52-.05.85-.17,1-.36a4,4,0,0,0,.18-1.59V35.85c0-2.7-.22-4.12-.65-4.26a3.28,3.28,0,0,0-1.26-.15,6.53,6.53,0,0,1-1.26-.07c-.53,0-.8-.19-.8-.58s.32-.51.94-.51h11.68c.92,0,1.38.21,1.38.61s-.79.43-2.38.48c-.77.05-1.23.21-1.37.5a11.18,11.18,0,0,0-.22,3.11V61.81c1.92,0,3.3.08,4.17.08q7.76,0,9.69-1.52,1.59-1.23,2-5.19c.09-1.16.36-1.73.79-1.73C296.08,53.45,296.4,54.5,296.4,56.62Z"/><path class="cls-2" d="M330.81,30.86c0,.34-.38.51-1.15.51h-1.81c-.77,0-1.15.48-1.15,1.43V46.09a83.85,83.85,0,0,1-.29,9,10.68,10.68,0,0,1-1.51,4q-2.82,4.53-10,4.53-5.93,0-9.45-2.74-3.25-2.52-3.25-9.72V36c0-2.59-.08-4-.25-4.24s-.88-.37-2.13-.37c-1,0-1.52-.19-1.52-.57s.34-.51,1-.51h11.4c.87,0,1.3.2,1.3.58s-.89.7-2.67.65c-.53,0-.84.09-.93.25a4.71,4.71,0,0,0-.15,1.62V50.66q0,7.05,1.8,9.14a7.45,7.45,0,0,0,6,2.38q5.57,0,7.58-4.6,1-2.3,1-7.4V32.8c0-.62-.12-1-.37-1.15a5.19,5.19,0,0,0-2-.22c-1.1,0-1.65-.21-1.65-.64s.29-.51.86-.51h8.16C330.43,30.28,330.81,30.48,330.81,30.86Z"/><path class="cls-2" d="M361.4,39c0,.66-.28,1-.86,1s-1-.44-1-1.32A11.51,11.51,0,0,0,358.3,34c-.91-1.67-3-2.51-6.28-2.51-.48,0-1.22,0-2.23.07v29c0,.91.69,1.39,2.09,1.44s2.09.24,2.09.58-.41.5-1.22.5H341c-1,0-1.44-.16-1.44-.5s.79-.53,2.38-.58a3,3,0,0,0,1.16-.15.8.8,0,0,0,.65-.76c0-.4.07-1.62.07-3.65v-26c-3.75-.05-6.2.33-7.33,1.14s-1.88,2.72-2.27,5.73c-.14,1.1-.46,1.64-.94,1.64s-.65-.54-.65-1.63c0-1.37.22-4.08.65-8.11h16.82q2.24,0,9.09-.12a6.39,6.39,0,0,0,1.51-.24l.07,1.49L361,34l.22,3,.14,1.27A8.26,8.26,0,0,1,361.4,39Z"/><path class="cls-2" d="M377.93,62.68c0,.29-.22.43-.65.43H365.15c-.81,0-1.22-.12-1.22-.37s.53-.52,1.59-.56c1.44-.1,2.2-.27,2.27-.51a22.16,22.16,0,0,0,.11-3.13V35.15a18.68,18.68,0,0,0-.15-3.31c-.09-.32-.46-.5-1.08-.55H364.5c-.43,0-.64-.16-.64-.5s.31-.51.93-.51H376.7c.77,0,1.15.2,1.15.58s-.81.46-2.45.51c-.67,0-1.08.1-1.23.32a5.18,5.18,0,0,0-.21,2v27.2a.89.89,0,0,0,.54.93,10.78,10.78,0,0,0,2.56.37C377.64,62.22,377.93,62.39,377.93,62.68Z"/><path class="cls-2" d="M413.93,46.92a16.71,16.71,0,0,1-4.55,11.84,14.63,14.63,0,0,1-11.11,4.86,15.82,15.82,0,0,1-11.79-4.93,16.64,16.64,0,0,1-4.8-12.06,16.68,16.68,0,0,1,4.58-12.14A15.63,15.63,0,0,1,398,29.78a14.9,14.9,0,0,1,11.37,4.93A17.29,17.29,0,0,1,413.93,46.92Zm-6.78.21q0-8.35-3.39-13.17a6.91,6.91,0,0,0-6-3.1q-5.26,0-7.65,5.76a27,27,0,0,0-1.66,10.22q0,7.42,2.6,11.59a8.07,8.07,0,0,0,7.21,4.18Q407.15,62.61,407.15,47.13Z"/><path class="cls-2" d="M449.28,30.79c0,.34-.53.5-1.58.5h-1.81c-.43,0-.68.1-.76.29a9.75,9.75,0,0,0-.1,2v26.6c0,1.74,0,2.75-.08,3s-.26.44-.65.44-2.24-2-5.13-6.06c-.33-.53-.86-1.25-1.57-2.17l-.79-1.08q-3.62-4.8-13.07-18V59.2c0,1.79.25,2.73.76,2.83a16.85,16.85,0,0,0,2.78.15h.28c.58,0,.87.15.87.47s-.53.54-1.59.54c-.19,0-1,0-2.38-.15-.72,0-1.37-.07-1.95-.07a13.88,13.88,0,0,0-1.44.07,27.23,27.23,0,0,1-3,.15c-.77,0-1.15-.18-1.15-.54s.46-.47,1.37-.47H419l.94-.08c1.15-.09,1.75-.31,1.8-.65a15.54,15.54,0,0,0,.07-2.11v-20c0-3.63-.21-5.81-.65-6.54-.57-1-1.7-1.45-3.39-1.45-1.2,0-1.8-.21-1.8-.61s.31-.48.94-.48h9.16l17,23.45v-20a7.55,7.55,0,0,0-.15-2.1c-.09-.19-.48-.29-1.15-.29h-1.95c-.91,0-1.37-.18-1.37-.53s.23-.36.69-.41,2.08-.07,4.87-.07,4.18,0,4.61.07S449.28,30.54,449.28,30.79Z"/><path class="cls-2" d="M474.82,53.85a8.7,8.7,0,0,1-3.46,6.9A12.71,12.71,0,0,1,463,63.62a15.18,15.18,0,0,1-7.57-2.24,2.72,2.72,0,0,0-.58-.14c-.29,0-.46.22-.51.68a8.3,8.3,0,0,1-.21,1.19.68.68,0,0,1-.73.51.64.64,0,0,1-.72-.72c0-.1.05-.82.15-2.17s.14-2.5.14-3.46V53.59c0-.91.24-1.37.72-1.37s.84.74,1.09,2.24q1.37,7.93,8.51,7.93,6.06,0,6.06-6a6.32,6.32,0,0,0-1.44-4.31,19.36,19.36,0,0,0-5.63-3.74c-3.66-1.82-6-3.25-7-4.31a7.27,7.27,0,0,1-1.95-5.17,8.28,8.28,0,0,1,2.89-6.5,10.59,10.59,0,0,1,7.29-2.55,12.43,12.43,0,0,1,5.84,1.66,1.24,1.24,0,0,0,.58.21c.33,0,.55-.34.65-1s.38-1.05.86-1.05a.64.64,0,0,1,.72.72,4,4,0,0,1-.07.58,26.27,26.27,0,0,0-.14,3q0,1.08.21,3.9a2.51,2.51,0,0,1,.08.65c0,.57-.2.86-.58.86s-.75-.43-.94-1.29a9.42,9.42,0,0,0-2.63-5A6.56,6.56,0,0,0,463.42,31q-5.19,0-5.19,5.53a6,6,0,0,0,3,5.38c.57.34,2.26,1.18,5.05,2.52a22.8,22.8,0,0,1,6.64,4.42A7.15,7.15,0,0,1,474.82,53.85Z"/><path class="cls-3" d="M318.2,92.37a5.19,5.19,0,0,1-.42,2.21A4.12,4.12,0,0,1,316.71,96a3.91,3.91,0,0,1-1.43.77,5.42,5.42,0,0,1-1.5.23h-4.34V80h3.85a6,6,0,0,1,1.49.19,4.14,4.14,0,0,1,1.41.66,3.56,3.56,0,0,1,1,1.27,4.37,4.37,0,0,1,.41,2,4.78,4.78,0,0,1-.2,1.5,3.91,3.91,0,0,1-.55,1.1,3,3,0,0,1-.77.77,3.88,3.88,0,0,1-.9.47v0a3.57,3.57,0,0,1,1,.38,3.36,3.36,0,0,1,1,.81,4.19,4.19,0,0,1,.73,1.29A5.34,5.34,0,0,1,318.2,92.37Zm-2.14-8a3.46,3.46,0,0,0-.25-1.41,2.47,2.47,0,0,0-.67-.92,2.61,2.61,0,0,0-.95-.49,4.32,4.32,0,0,0-1.08-.14H311v6h2.14a3.38,3.38,0,0,0,1-.17,2.46,2.46,0,0,0,.92-.54,2.78,2.78,0,0,0,.68-.94A3.41,3.41,0,0,0,316.06,84.41Zm.48,7.85a4,4,0,0,0-.29-1.61,3,3,0,0,0-.74-1.07,3.12,3.12,0,0,0-1-.6,3.63,3.63,0,0,0-1.09-.19H311v6.77h2.38a3.76,3.76,0,0,0,1.22-.19,2.8,2.8,0,0,0,1-.6,2.67,2.67,0,0,0,.67-1A4.1,4.1,0,0,0,316.54,92.26Z"/><path class="cls-3" d="M325.9,97V80h1.68V97Z"/><path class="cls-3" d="M343.64,92.66a5.62,5.62,0,0,1-.34,2,4.41,4.41,0,0,1-.92,1.49,4,4,0,0,1-1.38.93,4.34,4.34,0,0,1-1.68.33,5.32,5.32,0,0,1-2.39-.55,4.92,4.92,0,0,1-1.77-1.47l1-1.17a3.8,3.8,0,0,0,1.39,1.22,3.66,3.66,0,0,0,1.7.43,2.57,2.57,0,0,0,1.93-.81,3.25,3.25,0,0,0,.78-2.33,3.13,3.13,0,0,0-.24-1.27,3.44,3.44,0,0,0-.64-1,5.36,5.36,0,0,0-.93-.77,11.44,11.44,0,0,0-1.09-.62,10.06,10.06,0,0,1-1.32-.76,5.08,5.08,0,0,1-1.09-1,4.42,4.42,0,0,1-.76-1.31,5,5,0,0,1-.29-1.76,5.36,5.36,0,0,1,.36-2,4.26,4.26,0,0,1,1-1.47,3.85,3.85,0,0,1,1.38-.87,4.54,4.54,0,0,1,1.6-.29A5.15,5.15,0,0,1,342,80a3.7,3.7,0,0,1,1.55,1.23l-1,1.18a2.8,2.8,0,0,0-1.13-1,3.35,3.35,0,0,0-1.42-.3,2.84,2.84,0,0,0-1,.18,2.38,2.38,0,0,0-.88.57,2.75,2.75,0,0,0-.62,1,3.8,3.8,0,0,0-.24,1.42,3.32,3.32,0,0,0,.21,1.24,3.12,3.12,0,0,0,.59.94,4.63,4.63,0,0,0,.86.72c.33.21.67.4,1,.58a13.86,13.86,0,0,1,1.34.76,6.36,6.36,0,0,1,1.18,1,4.16,4.16,0,0,1,.84,1.35A4.71,4.71,0,0,1,343.64,92.66Z"/><path class="cls-3" d="M354.46,81.45V97H352.8V81.45h-3.26V80h8.21v1.44Z"/><path class="cls-3" d="M371.4,97l-3.07-7.87h-2.18V97h-1.66V80h4.08a5.47,5.47,0,0,1,1.62.23,3.61,3.61,0,0,1,1.39.75,3.81,3.81,0,0,1,1,1.39,5.33,5.33,0,0,1,.37,2.12,5.43,5.43,0,0,1-.28,1.86,4,4,0,0,1-.72,1.3,3.13,3.13,0,0,1-1,.82,3.3,3.3,0,0,1-1.07.36L373.2,97Zm-.09-12.42a4,4,0,0,0-.26-1.52,2.35,2.35,0,0,0-1.63-1.47,4.56,4.56,0,0,0-1.11-.14h-2.16v6.36h2.23a2.77,2.77,0,0,0,2.15-.85A3.4,3.4,0,0,0,371.31,84.58Z"/><path class="cls-3" d="M391.23,88.48a15.81,15.81,0,0,1-.39,3.64,9.49,9.49,0,0,1-1.1,2.82A5.46,5.46,0,0,1,388,96.76a4.36,4.36,0,0,1-2.36.65,4.43,4.43,0,0,1-2.36-.65,5.51,5.51,0,0,1-1.77-1.82,9.24,9.24,0,0,1-1.12-2.82,15.83,15.83,0,0,1-.38-3.64,16.22,16.22,0,0,1,.37-3.61,9.21,9.21,0,0,1,1.09-2.81,5.45,5.45,0,0,1,1.76-1.81,4.51,4.51,0,0,1,2.41-.65,4.36,4.36,0,0,1,2.36.65,5.43,5.43,0,0,1,1.75,1.81,9.21,9.21,0,0,1,1.1,2.81A15.61,15.61,0,0,1,391.23,88.48Zm-1.75,0a17.48,17.48,0,0,0-.24-2.88,8.51,8.51,0,0,0-.74-2.33,4.59,4.59,0,0,0-1.21-1.56,2.59,2.59,0,0,0-1.66-.57,2.71,2.71,0,0,0-1.71.57,4.47,4.47,0,0,0-1.21,1.56A8.88,8.88,0,0,0,382,85.6a17.4,17.4,0,0,0,0,5.76,9.15,9.15,0,0,0,.72,2.35,4.41,4.41,0,0,0,1.21,1.59,2.71,2.71,0,0,0,1.71.57,2.64,2.64,0,0,0,1.69-.57,4.63,4.63,0,0,0,1.2-1.59,9.15,9.15,0,0,0,.72-2.35A17.48,17.48,0,0,0,389.48,88.48Z"/><path class="cls-3" d="M406.56,92.66a5.63,5.63,0,0,1-.33,2,4.43,4.43,0,0,1-.93,1.49,3.83,3.83,0,0,1-1.38.93,4.27,4.27,0,0,1-1.68.33,5.27,5.27,0,0,1-2.38-.55,4.92,4.92,0,0,1-1.77-1.47l1-1.17a3.91,3.91,0,0,0,1.4,1.22,3.64,3.64,0,0,0,1.7.43,2.57,2.57,0,0,0,1.93-.81,3.25,3.25,0,0,0,.78-2.33,3.13,3.13,0,0,0-.24-1.27,3.27,3.27,0,0,0-.65-1,5.29,5.29,0,0,0-.92-.77,11.44,11.44,0,0,0-1.09-.62,9.45,9.45,0,0,1-1.32-.76,5.08,5.08,0,0,1-1.09-1,4.22,4.22,0,0,1-.76-1.31,5,5,0,0,1-.29-1.76,5.36,5.36,0,0,1,.36-2,4.38,4.38,0,0,1,1-1.47,4,4,0,0,1,1.38-.87,4.59,4.59,0,0,1,1.61-.29A5.15,5.15,0,0,1,405,80a3.76,3.76,0,0,1,1.55,1.23l-1,1.18a2.78,2.78,0,0,0-1.12-1,3.38,3.38,0,0,0-1.42-.3,2.89,2.89,0,0,0-1,.18,2.35,2.35,0,0,0-.87.57,2.76,2.76,0,0,0-.63,1,3.8,3.8,0,0,0-.24,1.42,3.31,3.31,0,0,0,.22,1.24,2.94,2.94,0,0,0,.59.94,4.32,4.32,0,0,0,.86.72c.33.21.67.4,1,.58a13.72,13.72,0,0,1,1.33.76,6.43,6.43,0,0,1,1.19,1,4.53,4.53,0,0,1,.84,1.35A4.71,4.71,0,0,1,406.56,92.66Z"/><path class="cls-3" d="M424.92,88.48a16.41,16.41,0,0,1-.38,3.64,9.76,9.76,0,0,1-1.1,2.82,5.49,5.49,0,0,1-1.76,1.82,4.32,4.32,0,0,1-2.35.65,4.38,4.38,0,0,1-2.36-.65,5.54,5.54,0,0,1-1.78-1.82,9.23,9.23,0,0,1-1.11-2.82,15.81,15.81,0,0,1-.39-3.64,16.22,16.22,0,0,1,.37-3.61,9.21,9.21,0,0,1,1.1-2.81,5.27,5.27,0,0,1,1.76-1.81,4.51,4.51,0,0,1,2.41-.65,4.32,4.32,0,0,1,2.35.65,5.45,5.45,0,0,1,1.76,1.81,9.47,9.47,0,0,1,1.1,2.81A16.19,16.19,0,0,1,424.92,88.48Zm-1.75,0a16.45,16.45,0,0,0-.24-2.88,8.51,8.51,0,0,0-.73-2.33A4.72,4.72,0,0,0,421,81.71a2.59,2.59,0,0,0-1.66-.57,2.67,2.67,0,0,0-1.71.57,4.49,4.49,0,0,0-1.22,1.56,8.88,8.88,0,0,0-.72,2.33,17.4,17.4,0,0,0,0,5.76,9.15,9.15,0,0,0,.72,2.35,4.43,4.43,0,0,0,1.22,1.59,2.67,2.67,0,0,0,1.71.57A2.63,2.63,0,0,0,421,95.3a4.51,4.51,0,0,0,1.2-1.59,9.15,9.15,0,0,0,.72-2.35A16.45,16.45,0,0,0,423.17,88.48Z"/><path class="cls-3" d="M432.89,97V80h1.68V95.44h4.85V97Z"/><path class="cls-3" d="M448,96a1.17,1.17,0,0,1-.33.86,1,1,0,0,1-.8.34,1,1,0,0,1-.79-.34,1.2,1.2,0,0,1-.32-.86,1.24,1.24,0,0,1,.32-.84,1,1,0,0,1,.79-.36,1,1,0,0,1,.8.36A1.2,1.2,0,0,1,448,96Z"/><path class="cls-3" d="M463.68,96.81a4.79,4.79,0,0,1-4.8-.09,5.72,5.72,0,0,1-1.82-1.87A9.25,9.25,0,0,1,455.92,92a15.86,15.86,0,0,1,0-7.08,9.26,9.26,0,0,1,1.15-2.82,5.84,5.84,0,0,1,1.84-1.86,4.51,4.51,0,0,1,2.45-.67,5.2,5.2,0,0,1,2.24.5,4.33,4.33,0,0,1,1.74,1.59l-1.08,1.1A3.83,3.83,0,0,0,463,81.54a3.1,3.1,0,0,0-1.54-.4,3,3,0,0,0-1.84.57,4.51,4.51,0,0,0-1.3,1.59,8.77,8.77,0,0,0-.76,2.35,15.27,15.27,0,0,0-.25,2.85,14.38,14.38,0,0,0,.26,2.85,8.47,8.47,0,0,0,.78,2.34,4.39,4.39,0,0,0,1.3,1.59,3,3,0,0,0,3.49.08A4.22,4.22,0,0,0,464.33,94l1.06,1.08A4.81,4.81,0,0,1,463.68,96.81Z"/><path class="cls-3" d="M483.07,88.48a15.83,15.83,0,0,1-.38,3.64,9.76,9.76,0,0,1-1.1,2.82,5.49,5.49,0,0,1-1.76,1.82,4.32,4.32,0,0,1-2.35.65,4.38,4.38,0,0,1-2.36-.65,5.54,5.54,0,0,1-1.78-1.82,9.23,9.23,0,0,1-1.11-2.82,15.81,15.81,0,0,1-.39-3.64,16.83,16.83,0,0,1,.37-3.61,9.21,9.21,0,0,1,1.1-2.81,5.36,5.36,0,0,1,1.76-1.81,4.51,4.51,0,0,1,2.41-.65,4.32,4.32,0,0,1,2.35.65,5.45,5.45,0,0,1,1.76,1.81,9.47,9.47,0,0,1,1.1,2.81A15.63,15.63,0,0,1,483.07,88.48Zm-1.75,0a16.45,16.45,0,0,0-.24-2.88,8.51,8.51,0,0,0-.73-2.33,4.72,4.72,0,0,0-1.21-1.56,2.59,2.59,0,0,0-1.66-.57,2.69,2.69,0,0,0-1.71.57,4.49,4.49,0,0,0-1.22,1.56,8.88,8.88,0,0,0-.72,2.33,17.4,17.4,0,0,0,0,5.76,9.15,9.15,0,0,0,.72,2.35,4.43,4.43,0,0,0,1.22,1.59,2.69,2.69,0,0,0,1.71.57,2.63,2.63,0,0,0,1.68-.57,4.51,4.51,0,0,0,1.2-1.59,9.15,9.15,0,0,0,.72-2.35A16.45,16.45,0,0,0,481.32,88.48Z"/></g></g></svg>